%TF.GenerationSoftware,KiCad,Pcbnew,10.0.6*%
%TF.CreationDate,2026-10-05T18:26:47+11:00*%
%TF.ProjectId,lainboard,6c61696e-626f-4617-9264-2e6b69636164,rev?*%
%TF.SameCoordinates,Original*%
%TF.FileFunction,Copper,L2,Bot*%
%TF.FilePolarity,Positive*%
%FSLAX46Y46*%
G04 Gerber Fmt 4.6, Leading zero omitted, Abs format (unit mm)*
G04 Created by KiCad (PCBNEW 10.0.6) date 2026-10-05 18:26:47*
%MOMM*%
%LPD*%
G01*
G04 APERTURE LIST*
%TA.AperFunction,ComponentPad*%
%ADD10C,1.524000*%
%TD*%
%TA.AperFunction,ComponentPad*%
%ADD11R,1.700000X1.700000*%
%TD*%
%TA.AperFunction,ComponentPad*%
%ADD12O,1.700000X1.700000*%
%TD*%
%TA.AperFunction,ComponentPad*%
%ADD13C,2.200000*%
%TD*%
%TA.AperFunction,Conductor*%
%ADD14C,0.250000*%
%TD*%
G04 APERTURE END LIST*
D10*
%TO.P,U1,1,PA02_A0_D0_1*%
%TO.N,Net-(U1-PA02_A0_D0)*%
X109440000Y-84380000D03*
%TO.P,U1,2,PA4_A1_D1_2*%
%TO.N,Net-(U1-PA4_A1_D1)*%
X109440000Y-86920000D03*
%TO.P,U1,3,PA10_A2_D2_3*%
%TO.N,Net-(U1-PA10_A2_D2)*%
X109440000Y-89460000D03*
%TO.P,U1,4,PA11_A3_D3_4*%
%TO.N,unconnected-(U1-PA11_A3_D3-Pad4)_1*%
X109440000Y-92000000D03*
%TO.P,U1,5,PA8_A4_D4_SDA_5*%
%TO.N,Net-(J1-Pin_4)*%
X109440000Y-94540000D03*
%TO.P,U1,6,PA9_A5_D5_SCL_6*%
%TO.N,Net-(J1-Pin_3)*%
X109440000Y-97080000D03*
%TO.P,U1,7,PB08_A6_D6_TX_7*%
%TO.N,unconnected-(U1-PB08_A6_D6_TX-Pad7)_1*%
X109440000Y-99620000D03*
%TO.P,U1,8,PB09_A7_D7_RX_8*%
%TO.N,unconnected-(U1-PB09_A7_D7_RX-Pad8)_1*%
X124680000Y-99620000D03*
%TO.P,U1,9,PA7_A8_D8_SCK_9*%
%TO.N,unconnected-(U1-PA7_A8_D8_SCK-Pad9)*%
X124680000Y-97080000D03*
%TO.P,U1,10,PA5_A9_D9_MISO_10*%
%TO.N,unconnected-(U1-PA5_A9_D9_MISO-Pad10)*%
X124680000Y-94540000D03*
%TO.P,U1,11,PA6_A10_D10_MOSI_11*%
%TO.N,unconnected-(U1-PA6_A10_D10_MOSI-Pad11)*%
X124680000Y-92000000D03*
%TO.P,U1,12,3V3_12*%
%TO.N,+3V3*%
X124680000Y-89460000D03*
%TO.P,U1,13,GND_13*%
%TO.N,GND*%
X124680000Y-86920000D03*
%TO.P,U1,14,5V_14*%
%TO.N,unconnected-(U1-5V-Pad14)*%
X124680000Y-84380000D03*
%TD*%
D11*
%TO.P,J1,1,Pin_1_1*%
%TO.N,GND*%
X176500000Y-88190000D03*
D12*
%TO.P,J1,2,Pin_2_2*%
%TO.N,+3V3*%
X176500000Y-90730000D03*
%TO.P,J1,3,Pin_3_3*%
%TO.N,Net-(J1-Pin_3)*%
X176500000Y-93270000D03*
%TO.P,J1,4,Pin_4_4*%
%TO.N,Net-(J1-Pin_4)*%
X176500000Y-95810000D03*
%TD*%
D13*
%TO.P,SW3,1,1_1*%
%TO.N,Net-(U1-PA10_A2_D2)*%
X179700000Y-110920000D03*
%TO.P,SW3,2,2_2*%
%TO.N,GND*%
X173350000Y-113460000D03*
%TD*%
%TO.P,SW2,1,1_1*%
%TO.N,Net-(U1-PA4_A1_D1)*%
X160650000Y-110920000D03*
%TO.P,SW2,2,2_2*%
%TO.N,GND*%
X154300000Y-113460000D03*
%TD*%
%TO.P,SW1,1,1_1*%
%TO.N,Net-(U1-PA02_A0_D0)*%
X141600000Y-110920000D03*
%TO.P,SW1,2,2_2*%
%TO.N,GND*%
X135250000Y-113460000D03*
%TD*%
%TO.N,Net-(U1-PA02_A0_D0)*%
D14*
X135730000Y-105050000D02*
X105660000Y-105050000D01*
X105660000Y-105050000D02*
X105660000Y-88160000D01*
X141600000Y-110920000D02*
X135730000Y-105050000D01*
X105660000Y-88160000D02*
X109440000Y-84380000D01*
%TO.N,Net-(U1-PA4_A1_D1)*%
X106860000Y-89500000D02*
X109440000Y-86920000D01*
X106860000Y-104175000D02*
X106860000Y-89500000D01*
X153905000Y-104175000D02*
X106860000Y-104175000D01*
X160650000Y-110920000D02*
X153905000Y-104175000D01*
%TO.N,Net-(U1-PA10_A2_D2)*%
X107860000Y-91040000D02*
X109440000Y-89460000D01*
X107860000Y-103175000D02*
X107860000Y-91040000D01*
X179700000Y-110920000D02*
X171955000Y-103175000D01*
X171955000Y-103175000D02*
X107860000Y-103175000D01*
%TD*%
%TA.AperFunction,Conductor*%
%TO.N,GND*%
G36*
X188502539Y-80520185D02*
G01*
X188548294Y-80572989D01*
X188559500Y-80624500D01*
X188559500Y-129375500D01*
X188539815Y-129442539D01*
X188487011Y-129488294D01*
X188435500Y-129499500D01*
X99684500Y-129499500D01*
X99617461Y-129479815D01*
X99571706Y-129427011D01*
X99560500Y-129375500D01*
X99560500Y-125878711D01*
X101209500Y-125878711D01*
X101209500Y-126121288D01*
X101241161Y-126361785D01*
X101303947Y-126596104D01*
X101396773Y-126820205D01*
X101396776Y-126820212D01*
X101518064Y-127030289D01*
X101518066Y-127030292D01*
X101518067Y-127030293D01*
X101665733Y-127222736D01*
X101665739Y-127222743D01*
X101837256Y-127394260D01*
X101837262Y-127394265D01*
X102029711Y-127541936D01*
X102239788Y-127663224D01*
X102463900Y-127756054D01*
X102698211Y-127818838D01*
X102878586Y-127842584D01*
X102938711Y-127850500D01*
X102938712Y-127850500D01*
X103181289Y-127850500D01*
X103229388Y-127844167D01*
X103421789Y-127818838D01*
X103656100Y-127756054D01*
X103880212Y-127663224D01*
X104090289Y-127541936D01*
X104282738Y-127394265D01*
X104454265Y-127222738D01*
X104601936Y-127030289D01*
X104723224Y-126820212D01*
X104816054Y-126596100D01*
X104878838Y-126361789D01*
X104910500Y-126121288D01*
X104910500Y-125878712D01*
X104878838Y-125638211D01*
X104816054Y-125403900D01*
X104723224Y-125179788D01*
X104601936Y-124969711D01*
X104454265Y-124777262D01*
X104454260Y-124777256D01*
X104282743Y-124605739D01*
X104282736Y-124605733D01*
X104090293Y-124458067D01*
X104090292Y-124458066D01*
X104090289Y-124458064D01*
X103880212Y-124336776D01*
X103880205Y-124336773D01*
X103656104Y-124243947D01*
X103421785Y-124181161D01*
X103181289Y-124149500D01*
X103181288Y-124149500D01*
X102938712Y-124149500D01*
X102938711Y-124149500D01*
X102698214Y-124181161D01*
X102463895Y-124243947D01*
X102239794Y-124336773D01*
X102239785Y-124336777D01*
X102029706Y-124458067D01*
X101837263Y-124605733D01*
X101837256Y-124605739D01*
X101665739Y-124777256D01*
X101665733Y-124777263D01*
X101518067Y-124969706D01*
X101396777Y-125179785D01*
X101396773Y-125179794D01*
X101303947Y-125403895D01*
X101241161Y-125638214D01*
X101209500Y-125878711D01*
X99560500Y-125878711D01*
X99560500Y-115913389D01*
X132879500Y-115913389D01*
X132879500Y-116086611D01*
X132906598Y-116257701D01*
X132960127Y-116422445D01*
X133038768Y-116576788D01*
X133140586Y-116716928D01*
X133263072Y-116839414D01*
X133403212Y-116941232D01*
X133557555Y-117019873D01*
X133722299Y-117073402D01*
X133893389Y-117100500D01*
X133893390Y-117100500D01*
X134066610Y-117100500D01*
X134066611Y-117100500D01*
X134237701Y-117073402D01*
X134402445Y-117019873D01*
X134556788Y-116941232D01*
X134696928Y-116839414D01*
X134819414Y-116716928D01*
X134921232Y-116576788D01*
X134999873Y-116422445D01*
X135053402Y-116257701D01*
X135080500Y-116086611D01*
X135080500Y-115913389D01*
X135070854Y-115852486D01*
X136809500Y-115852486D01*
X136809500Y-116147513D01*
X136841571Y-116391113D01*
X136848007Y-116439993D01*
X136922212Y-116716930D01*
X136924361Y-116724951D01*
X136924364Y-116724961D01*
X137037254Y-116997500D01*
X137037258Y-116997510D01*
X137184761Y-117252993D01*
X137364352Y-117487040D01*
X137364358Y-117487047D01*
X137572952Y-117695641D01*
X137572959Y-117695647D01*
X137807006Y-117875238D01*
X138062489Y-118022741D01*
X138062490Y-118022741D01*
X138062493Y-118022743D01*
X138335048Y-118135639D01*
X138620007Y-118211993D01*
X138912494Y-118250500D01*
X138912501Y-118250500D01*
X139207499Y-118250500D01*
X139207506Y-118250500D01*
X139499993Y-118211993D01*
X139784952Y-118135639D01*
X140057507Y-118022743D01*
X140312994Y-117875238D01*
X140547042Y-117695646D01*
X140755646Y-117487042D01*
X140935238Y-117252994D01*
X141082743Y-116997507D01*
X141195639Y-116724952D01*
X141271993Y-116439993D01*
X141310500Y-116147506D01*
X141310500Y-115913389D01*
X143039500Y-115913389D01*
X143039500Y-116086611D01*
X143066598Y-116257701D01*
X143120127Y-116422445D01*
X143198768Y-116576788D01*
X143300586Y-116716928D01*
X143423072Y-116839414D01*
X143563212Y-116941232D01*
X143717555Y-117019873D01*
X143882299Y-117073402D01*
X144053389Y-117100500D01*
X144053390Y-117100500D01*
X144226610Y-117100500D01*
X144226611Y-117100500D01*
X144397701Y-117073402D01*
X144562445Y-117019873D01*
X144716788Y-116941232D01*
X144856928Y-116839414D01*
X144979414Y-116716928D01*
X145081232Y-116576788D01*
X145159873Y-116422445D01*
X145213402Y-116257701D01*
X145240500Y-116086611D01*
X145240500Y-115913389D01*
X151929500Y-115913389D01*
X151929500Y-116086611D01*
X151956598Y-116257701D01*
X152010127Y-116422445D01*
X152088768Y-116576788D01*
X152190586Y-116716928D01*
X152313072Y-116839414D01*
X152453212Y-116941232D01*
X152607555Y-117019873D01*
X152772299Y-117073402D01*
X152943389Y-117100500D01*
X152943390Y-117100500D01*
X153116610Y-117100500D01*
X153116611Y-117100500D01*
X153287701Y-117073402D01*
X153452445Y-117019873D01*
X153606788Y-116941232D01*
X153746928Y-116839414D01*
X153869414Y-116716928D01*
X153971232Y-116576788D01*
X154049873Y-116422445D01*
X154103402Y-116257701D01*
X154130500Y-116086611D01*
X154130500Y-115913389D01*
X154120854Y-115852486D01*
X155859500Y-115852486D01*
X155859500Y-116147513D01*
X155891571Y-116391113D01*
X155898007Y-116439993D01*
X155972212Y-116716930D01*
X155974361Y-116724951D01*
X155974364Y-116724961D01*
X156087254Y-116997500D01*
X156087258Y-116997510D01*
X156234761Y-117252993D01*
X156414352Y-117487040D01*
X156414358Y-117487047D01*
X156622952Y-117695641D01*
X156622959Y-117695647D01*
X156857006Y-117875238D01*
X157112489Y-118022741D01*
X157112490Y-118022741D01*
X157112493Y-118022743D01*
X157385048Y-118135639D01*
X157670007Y-118211993D01*
X157962494Y-118250500D01*
X157962501Y-118250500D01*
X158257499Y-118250500D01*
X158257506Y-118250500D01*
X158549993Y-118211993D01*
X158834952Y-118135639D01*
X159107507Y-118022743D01*
X159362994Y-117875238D01*
X159597042Y-117695646D01*
X159805646Y-117487042D01*
X159985238Y-117252994D01*
X160132743Y-116997507D01*
X160245639Y-116724952D01*
X160321993Y-116439993D01*
X160360500Y-116147506D01*
X160360500Y-115913389D01*
X162089500Y-115913389D01*
X162089500Y-116086611D01*
X162116598Y-116257701D01*
X162170127Y-116422445D01*
X162248768Y-116576788D01*
X162350586Y-116716928D01*
X162473072Y-116839414D01*
X162613212Y-116941232D01*
X162767555Y-117019873D01*
X162932299Y-117073402D01*
X163103389Y-117100500D01*
X163103390Y-117100500D01*
X163276610Y-117100500D01*
X163276611Y-117100500D01*
X163447701Y-117073402D01*
X163612445Y-117019873D01*
X163766788Y-116941232D01*
X163906928Y-116839414D01*
X164029414Y-116716928D01*
X164131232Y-116576788D01*
X164209873Y-116422445D01*
X164263402Y-116257701D01*
X164290500Y-116086611D01*
X164290500Y-115913389D01*
X170979500Y-115913389D01*
X170979500Y-116086611D01*
X171006598Y-116257701D01*
X171060127Y-116422445D01*
X171138768Y-116576788D01*
X171240586Y-116716928D01*
X171363072Y-116839414D01*
X171503212Y-116941232D01*
X171657555Y-117019873D01*
X171822299Y-117073402D01*
X171993389Y-117100500D01*
X171993390Y-117100500D01*
X172166610Y-117100500D01*
X172166611Y-117100500D01*
X172337701Y-117073402D01*
X172502445Y-117019873D01*
X172656788Y-116941232D01*
X172796928Y-116839414D01*
X172919414Y-116716928D01*
X173021232Y-116576788D01*
X173099873Y-116422445D01*
X173153402Y-116257701D01*
X173180500Y-116086611D01*
X173180500Y-115913389D01*
X173170854Y-115852486D01*
X174909500Y-115852486D01*
X174909500Y-116147513D01*
X174941571Y-116391113D01*
X174948007Y-116439993D01*
X175022212Y-116716930D01*
X175024361Y-116724951D01*
X175024364Y-116724961D01*
X175137254Y-116997500D01*
X175137258Y-116997510D01*
X175284761Y-117252993D01*
X175464352Y-117487040D01*
X175464358Y-117487047D01*
X175672952Y-117695641D01*
X175672959Y-117695647D01*
X175907006Y-117875238D01*
X176162489Y-118022741D01*
X176162490Y-118022741D01*
X176162493Y-118022743D01*
X176435048Y-118135639D01*
X176720007Y-118211993D01*
X177012494Y-118250500D01*
X177012501Y-118250500D01*
X177307499Y-118250500D01*
X177307506Y-118250500D01*
X177599993Y-118211993D01*
X177884952Y-118135639D01*
X178157507Y-118022743D01*
X178412994Y-117875238D01*
X178647042Y-117695646D01*
X178855646Y-117487042D01*
X179035238Y-117252994D01*
X179182743Y-116997507D01*
X179295639Y-116724952D01*
X179371993Y-116439993D01*
X179410500Y-116147506D01*
X179410500Y-115913389D01*
X181139500Y-115913389D01*
X181139500Y-116086611D01*
X181166598Y-116257701D01*
X181220127Y-116422445D01*
X181298768Y-116576788D01*
X181400586Y-116716928D01*
X181523072Y-116839414D01*
X181663212Y-116941232D01*
X181817555Y-117019873D01*
X181982299Y-117073402D01*
X182153389Y-117100500D01*
X182153390Y-117100500D01*
X182326610Y-117100500D01*
X182326611Y-117100500D01*
X182497701Y-117073402D01*
X182662445Y-117019873D01*
X182816788Y-116941232D01*
X182956928Y-116839414D01*
X183079414Y-116716928D01*
X183181232Y-116576788D01*
X183259873Y-116422445D01*
X183313402Y-116257701D01*
X183340500Y-116086611D01*
X183340500Y-115913389D01*
X183313402Y-115742299D01*
X183259873Y-115577555D01*
X183181232Y-115423212D01*
X183079414Y-115283072D01*
X182956928Y-115160586D01*
X182816788Y-115058768D01*
X182662445Y-114980127D01*
X182497701Y-114926598D01*
X182497699Y-114926597D01*
X182497698Y-114926597D01*
X182366271Y-114905781D01*
X182326611Y-114899500D01*
X182153389Y-114899500D01*
X182113728Y-114905781D01*
X181982302Y-114926597D01*
X181817552Y-114980128D01*
X181663211Y-115058768D01*
X181583256Y-115116859D01*
X181523072Y-115160586D01*
X181523070Y-115160588D01*
X181523069Y-115160588D01*
X181400588Y-115283069D01*
X181400588Y-115283070D01*
X181400586Y-115283072D01*
X181356859Y-115343256D01*
X181298768Y-115423211D01*
X181220128Y-115577552D01*
X181166597Y-115742302D01*
X181139500Y-115913389D01*
X179410500Y-115913389D01*
X179410500Y-115852494D01*
X179371993Y-115560007D01*
X179295639Y-115275048D01*
X179182743Y-115002493D01*
X179035238Y-114747006D01*
X178885264Y-114551557D01*
X178855647Y-114512959D01*
X178855641Y-114512952D01*
X178647047Y-114304358D01*
X178647040Y-114304352D01*
X178412993Y-114124761D01*
X178157510Y-113977258D01*
X178157500Y-113977254D01*
X177884961Y-113864364D01*
X177884954Y-113864362D01*
X177884952Y-113864361D01*
X177599993Y-113788007D01*
X177551113Y-113781571D01*
X177307513Y-113749500D01*
X177307506Y-113749500D01*
X177012494Y-113749500D01*
X177012486Y-113749500D01*
X176734085Y-113786153D01*
X176720007Y-113788007D01*
X176435048Y-113864361D01*
X176435038Y-113864364D01*
X176162499Y-113977254D01*
X176162489Y-113977258D01*
X175907006Y-114124761D01*
X175672959Y-114304352D01*
X175672952Y-114304358D01*
X175464358Y-114512952D01*
X175464352Y-114512959D01*
X175284761Y-114747006D01*
X175137258Y-115002489D01*
X175137254Y-115002499D01*
X175024364Y-115275038D01*
X175024361Y-115275048D01*
X174948008Y-115560004D01*
X174948006Y-115560015D01*
X174909500Y-115852486D01*
X173170854Y-115852486D01*
X173153402Y-115742299D01*
X173099873Y-115577555D01*
X173021232Y-115423212D01*
X172919414Y-115283072D01*
X172796928Y-115160586D01*
X172656788Y-115058768D01*
X172502445Y-114980127D01*
X172337701Y-114926598D01*
X172337699Y-114926597D01*
X172337698Y-114926597D01*
X172206271Y-114905781D01*
X172166611Y-114899500D01*
X171993389Y-114899500D01*
X171953728Y-114905781D01*
X171822302Y-114926597D01*
X171657552Y-114980128D01*
X171503211Y-115058768D01*
X171423256Y-115116859D01*
X171363072Y-115160586D01*
X171363070Y-115160588D01*
X171363069Y-115160588D01*
X171240588Y-115283069D01*
X171240588Y-115283070D01*
X171240586Y-115283072D01*
X171196859Y-115343256D01*
X171138768Y-115423211D01*
X171060128Y-115577552D01*
X171006597Y-115742302D01*
X170979500Y-115913389D01*
X164290500Y-115913389D01*
X164263402Y-115742299D01*
X164209873Y-115577555D01*
X164131232Y-115423212D01*
X164029414Y-115283072D01*
X163906928Y-115160586D01*
X163766788Y-115058768D01*
X163612445Y-114980127D01*
X163447701Y-114926598D01*
X163447699Y-114926597D01*
X163447698Y-114926597D01*
X163316271Y-114905781D01*
X163276611Y-114899500D01*
X163103389Y-114899500D01*
X163063728Y-114905781D01*
X162932302Y-114926597D01*
X162767552Y-114980128D01*
X162613211Y-115058768D01*
X162533256Y-115116859D01*
X162473072Y-115160586D01*
X162473070Y-115160588D01*
X162473069Y-115160588D01*
X162350588Y-115283069D01*
X162350588Y-115283070D01*
X162350586Y-115283072D01*
X162306859Y-115343256D01*
X162248768Y-115423211D01*
X162170128Y-115577552D01*
X162116597Y-115742302D01*
X162089500Y-115913389D01*
X160360500Y-115913389D01*
X160360500Y-115852494D01*
X160321993Y-115560007D01*
X160245639Y-115275048D01*
X160132743Y-115002493D01*
X159985238Y-114747006D01*
X159856923Y-114579782D01*
X159856922Y-114579781D01*
X159805649Y-114512962D01*
X159805641Y-114512952D01*
X159597047Y-114304358D01*
X159597040Y-114304352D01*
X159362993Y-114124761D01*
X159107510Y-113977258D01*
X159107500Y-113977254D01*
X158834961Y-113864364D01*
X158834954Y-113864362D01*
X158834952Y-113864361D01*
X158549993Y-113788007D01*
X158501113Y-113781571D01*
X158257513Y-113749500D01*
X158257506Y-113749500D01*
X157962494Y-113749500D01*
X157962486Y-113749500D01*
X157684085Y-113786153D01*
X157670007Y-113788007D01*
X157385048Y-113864361D01*
X157385038Y-113864364D01*
X157112499Y-113977254D01*
X157112489Y-113977258D01*
X156857006Y-114124761D01*
X156622959Y-114304352D01*
X156622952Y-114304358D01*
X156414358Y-114512952D01*
X156414352Y-114512959D01*
X156234761Y-114747006D01*
X156087258Y-115002489D01*
X156087254Y-115002499D01*
X155974364Y-115275038D01*
X155974361Y-115275048D01*
X155898008Y-115560004D01*
X155898006Y-115560015D01*
X155859500Y-115852486D01*
X154120854Y-115852486D01*
X154103402Y-115742299D01*
X154049873Y-115577555D01*
X153971232Y-115423212D01*
X153869414Y-115283072D01*
X153746928Y-115160586D01*
X153606788Y-115058768D01*
X153452445Y-114980127D01*
X153287701Y-114926598D01*
X153287699Y-114926597D01*
X153287698Y-114926597D01*
X153156271Y-114905781D01*
X153116611Y-114899500D01*
X152943389Y-114899500D01*
X152903728Y-114905781D01*
X152772302Y-114926597D01*
X152607552Y-114980128D01*
X152453211Y-115058768D01*
X152373256Y-115116859D01*
X152313072Y-115160586D01*
X152313070Y-115160588D01*
X152313069Y-115160588D01*
X152190588Y-115283069D01*
X152190588Y-115283070D01*
X152190586Y-115283072D01*
X152146859Y-115343256D01*
X152088768Y-115423211D01*
X152010128Y-115577552D01*
X151956597Y-115742302D01*
X151929500Y-115913389D01*
X145240500Y-115913389D01*
X145213402Y-115742299D01*
X145159873Y-115577555D01*
X145081232Y-115423212D01*
X144979414Y-115283072D01*
X144856928Y-115160586D01*
X144716788Y-115058768D01*
X144562445Y-114980127D01*
X144397701Y-114926598D01*
X144397699Y-114926597D01*
X144397698Y-114926597D01*
X144266271Y-114905781D01*
X144226611Y-114899500D01*
X144053389Y-114899500D01*
X144013728Y-114905781D01*
X143882302Y-114926597D01*
X143717552Y-114980128D01*
X143563211Y-115058768D01*
X143483256Y-115116859D01*
X143423072Y-115160586D01*
X143423070Y-115160588D01*
X143423069Y-115160588D01*
X143300588Y-115283069D01*
X143300588Y-115283070D01*
X143300586Y-115283072D01*
X143256859Y-115343256D01*
X143198768Y-115423211D01*
X143120128Y-115577552D01*
X143066597Y-115742302D01*
X143039500Y-115913389D01*
X141310500Y-115913389D01*
X141310500Y-115852494D01*
X141271993Y-115560007D01*
X141195639Y-115275048D01*
X141082743Y-115002493D01*
X140935238Y-114747006D01*
X140806923Y-114579782D01*
X140806922Y-114579781D01*
X140755649Y-114512962D01*
X140755641Y-114512952D01*
X140547047Y-114304358D01*
X140547040Y-114304352D01*
X140312993Y-114124761D01*
X140057510Y-113977258D01*
X140057500Y-113977254D01*
X139784961Y-113864364D01*
X139784954Y-113864362D01*
X139784952Y-113864361D01*
X139499993Y-113788007D01*
X139451113Y-113781571D01*
X139207513Y-113749500D01*
X139207506Y-113749500D01*
X138912494Y-113749500D01*
X138912486Y-113749500D01*
X138634085Y-113786153D01*
X138620007Y-113788007D01*
X138335048Y-113864361D01*
X138335038Y-113864364D01*
X138062499Y-113977254D01*
X138062489Y-113977258D01*
X137807006Y-114124761D01*
X137572959Y-114304352D01*
X137572952Y-114304358D01*
X137364358Y-114512952D01*
X137364352Y-114512959D01*
X137184761Y-114747006D01*
X137037258Y-115002489D01*
X137037254Y-115002499D01*
X136924364Y-115275038D01*
X136924361Y-115275048D01*
X136848008Y-115560004D01*
X136848006Y-115560015D01*
X136809500Y-115852486D01*
X135070854Y-115852486D01*
X135053402Y-115742299D01*
X134999873Y-115577555D01*
X134921232Y-115423212D01*
X134819414Y-115283072D01*
X134696928Y-115160586D01*
X134556788Y-115058768D01*
X134402445Y-114980127D01*
X134237701Y-114926598D01*
X134237699Y-114926597D01*
X134237698Y-114926597D01*
X134106271Y-114905781D01*
X134066611Y-114899500D01*
X133893389Y-114899500D01*
X133853728Y-114905781D01*
X133722302Y-114926597D01*
X133557552Y-114980128D01*
X133403211Y-115058768D01*
X133323256Y-115116859D01*
X133263072Y-115160586D01*
X133263070Y-115160588D01*
X133263069Y-115160588D01*
X133140588Y-115283069D01*
X133140588Y-115283070D01*
X133140586Y-115283072D01*
X133096859Y-115343256D01*
X133038768Y-115423211D01*
X132960128Y-115577552D01*
X132906597Y-115742302D01*
X132879500Y-115913389D01*
X99560500Y-115913389D01*
X99560500Y-113349818D01*
X133850000Y-113349818D01*
X133850000Y-113570181D01*
X133884473Y-113787835D01*
X133952567Y-113997410D01*
X134052615Y-114193763D01*
X134158442Y-114339423D01*
X134158443Y-114339423D01*
X134624311Y-113873555D01*
X134667437Y-113938097D01*
X134771903Y-114042563D01*
X134836443Y-114085687D01*
X134370574Y-114551555D01*
X134370575Y-114551556D01*
X134516236Y-114657384D01*
X134712589Y-114757432D01*
X134922164Y-114825526D01*
X135139819Y-114860000D01*
X135360181Y-114860000D01*
X135577835Y-114825526D01*
X135787410Y-114757432D01*
X135983763Y-114657384D01*
X136129423Y-114551557D01*
X136129424Y-114551555D01*
X135663556Y-114085687D01*
X135728097Y-114042563D01*
X135832563Y-113938097D01*
X135875687Y-113873556D01*
X136341555Y-114339424D01*
X136341557Y-114339423D01*
X136447384Y-114193763D01*
X136547432Y-113997410D01*
X136615526Y-113787835D01*
X136650000Y-113570181D01*
X136650000Y-113349818D01*
X152900000Y-113349818D01*
X152900000Y-113570181D01*
X152934473Y-113787835D01*
X153002567Y-113997410D01*
X153102615Y-114193763D01*
X153208442Y-114339423D01*
X153208443Y-114339423D01*
X153674311Y-113873555D01*
X153717437Y-113938097D01*
X153821903Y-114042563D01*
X153886443Y-114085687D01*
X153420574Y-114551555D01*
X153420575Y-114551556D01*
X153566236Y-114657384D01*
X153762589Y-114757432D01*
X153972164Y-114825526D01*
X154189819Y-114860000D01*
X154410181Y-114860000D01*
X154627835Y-114825526D01*
X154837410Y-114757432D01*
X155033763Y-114657384D01*
X155179423Y-114551557D01*
X155179424Y-114551555D01*
X154713556Y-114085687D01*
X154778097Y-114042563D01*
X154882563Y-113938097D01*
X154925687Y-113873556D01*
X155391555Y-114339424D01*
X155391557Y-114339423D01*
X155497384Y-114193763D01*
X155597432Y-113997410D01*
X155665526Y-113787835D01*
X155700000Y-113570181D01*
X155700000Y-113349818D01*
X171950000Y-113349818D01*
X171950000Y-113570181D01*
X171984473Y-113787835D01*
X172052567Y-113997410D01*
X172152615Y-114193763D01*
X172258442Y-114339423D01*
X172258443Y-114339423D01*
X172724311Y-113873555D01*
X172767437Y-113938097D01*
X172871903Y-114042563D01*
X172936443Y-114085687D01*
X172470574Y-114551555D01*
X172470575Y-114551556D01*
X172616236Y-114657384D01*
X172812589Y-114757432D01*
X173022164Y-114825526D01*
X173239819Y-114860000D01*
X173460181Y-114860000D01*
X173677835Y-114825526D01*
X173887410Y-114757432D01*
X174083763Y-114657384D01*
X174229423Y-114551557D01*
X174229424Y-114551555D01*
X173763556Y-114085687D01*
X173828097Y-114042563D01*
X173932563Y-113938097D01*
X173975687Y-113873556D01*
X174441555Y-114339424D01*
X174441557Y-114339423D01*
X174547384Y-114193763D01*
X174647432Y-113997410D01*
X174715526Y-113787835D01*
X174750000Y-113570181D01*
X174750000Y-113349818D01*
X174715526Y-113132164D01*
X174647432Y-112922589D01*
X174547384Y-112726236D01*
X174441556Y-112580575D01*
X174441555Y-112580574D01*
X173975687Y-113046443D01*
X173932563Y-112981903D01*
X173828097Y-112877437D01*
X173763555Y-112834312D01*
X174229423Y-112368443D01*
X174229423Y-112368442D01*
X174083763Y-112262615D01*
X173887410Y-112162567D01*
X173677835Y-112094473D01*
X173460181Y-112060000D01*
X173239819Y-112060000D01*
X173022164Y-112094473D01*
X172812589Y-112162567D01*
X172616243Y-112262611D01*
X172470575Y-112368443D01*
X172936444Y-112834312D01*
X172871903Y-112877437D01*
X172767437Y-112981903D01*
X172724312Y-113046443D01*
X172258443Y-112580575D01*
X172152611Y-112726243D01*
X172052567Y-112922589D01*
X171984473Y-113132164D01*
X171950000Y-113349818D01*
X155700000Y-113349818D01*
X155665526Y-113132164D01*
X155597432Y-112922589D01*
X155497384Y-112726236D01*
X155391556Y-112580575D01*
X155391555Y-112580574D01*
X154925687Y-113046443D01*
X154882563Y-112981903D01*
X154778097Y-112877437D01*
X154713555Y-112834312D01*
X155179423Y-112368443D01*
X155179423Y-112368442D01*
X155033763Y-112262615D01*
X154837410Y-112162567D01*
X154627835Y-112094473D01*
X154410181Y-112060000D01*
X154189819Y-112060000D01*
X153972164Y-112094473D01*
X153762589Y-112162567D01*
X153566243Y-112262611D01*
X153420575Y-112368443D01*
X153886444Y-112834312D01*
X153821903Y-112877437D01*
X153717437Y-112981903D01*
X153674312Y-113046444D01*
X153208443Y-112580575D01*
X153102611Y-112726243D01*
X153002567Y-112922589D01*
X152934473Y-113132164D01*
X152900000Y-113349818D01*
X136650000Y-113349818D01*
X136615526Y-113132164D01*
X136547432Y-112922589D01*
X136447384Y-112726236D01*
X136341556Y-112580575D01*
X136341555Y-112580574D01*
X135875687Y-113046443D01*
X135832563Y-112981903D01*
X135728097Y-112877437D01*
X135663555Y-112834312D01*
X136129423Y-112368443D01*
X136129423Y-112368442D01*
X135983763Y-112262615D01*
X135787410Y-112162567D01*
X135577835Y-112094473D01*
X135360181Y-112060000D01*
X135139819Y-112060000D01*
X134922164Y-112094473D01*
X134712589Y-112162567D01*
X134516243Y-112262611D01*
X134370575Y-112368443D01*
X134836444Y-112834312D01*
X134771903Y-112877437D01*
X134667437Y-112981903D01*
X134624312Y-113046444D01*
X134158443Y-112580575D01*
X134052611Y-112726243D01*
X133952567Y-112922589D01*
X133884473Y-113132164D01*
X133850000Y-113349818D01*
X99560500Y-113349818D01*
X99560500Y-88117147D01*
X105334500Y-88117147D01*
X105334500Y-105092852D01*
X105356682Y-105175637D01*
X105356685Y-105175644D01*
X105399530Y-105249855D01*
X105399534Y-105249860D01*
X105399535Y-105249862D01*
X105460138Y-105310465D01*
X105460140Y-105310466D01*
X105460144Y-105310469D01*
X105534355Y-105353314D01*
X105534362Y-105353318D01*
X105617147Y-105375500D01*
X105702853Y-105375500D01*
X135543811Y-105375500D01*
X135610850Y-105395185D01*
X135631492Y-105411819D01*
X140414000Y-110194326D01*
X140447485Y-110255649D01*
X140442501Y-110325341D01*
X140436804Y-110338301D01*
X140394782Y-110420773D01*
X140331522Y-110615465D01*
X140299500Y-110817648D01*
X140299500Y-111022351D01*
X140331522Y-111224534D01*
X140394781Y-111419223D01*
X140487715Y-111601613D01*
X140608028Y-111767213D01*
X140752786Y-111911971D01*
X140907749Y-112024556D01*
X140918390Y-112032287D01*
X141034607Y-112091503D01*
X141100776Y-112125218D01*
X141100778Y-112125218D01*
X141100781Y-112125220D01*
X141205137Y-112159127D01*
X141295465Y-112188477D01*
X141396557Y-112204488D01*
X141497648Y-112220500D01*
X141497649Y-112220500D01*
X141702351Y-112220500D01*
X141702352Y-112220500D01*
X141904534Y-112188477D01*
X142099219Y-112125220D01*
X142281610Y-112032287D01*
X142374590Y-111964732D01*
X142447213Y-111911971D01*
X142447215Y-111911968D01*
X142447219Y-111911966D01*
X142591966Y-111767219D01*
X142591968Y-111767215D01*
X142591971Y-111767213D01*
X142644732Y-111694590D01*
X142712287Y-111601610D01*
X142805220Y-111419219D01*
X142868477Y-111224534D01*
X142900500Y-111022352D01*
X142900500Y-110817648D01*
X142868477Y-110615466D01*
X142868476Y-110615464D01*
X142805218Y-110420776D01*
X142756591Y-110325341D01*
X142712287Y-110238390D01*
X142680273Y-110194326D01*
X142591971Y-110072786D01*
X142447213Y-109928028D01*
X142281613Y-109807715D01*
X142281612Y-109807714D01*
X142281610Y-109807713D01*
X142224653Y-109778691D01*
X142099223Y-109714781D01*
X141904534Y-109651522D01*
X141729995Y-109623878D01*
X141702352Y-109619500D01*
X141497648Y-109619500D01*
X141473329Y-109623351D01*
X141295465Y-109651522D01*
X141100773Y-109714782D01*
X141018301Y-109756804D01*
X140949631Y-109769700D01*
X140884891Y-109743423D01*
X140874326Y-109734000D01*
X135929864Y-104789537D01*
X135929863Y-104789536D01*
X135929862Y-104789535D01*
X135855639Y-104746682D01*
X135846654Y-104744274D01*
X135786994Y-104707911D01*
X135756464Y-104645064D01*
X135764758Y-104575689D01*
X135809243Y-104521810D01*
X135875795Y-104500535D01*
X135878747Y-104500500D01*
X153718811Y-104500500D01*
X153785850Y-104520185D01*
X153806492Y-104536819D01*
X159464000Y-110194327D01*
X159497485Y-110255650D01*
X159492501Y-110325342D01*
X159486804Y-110338302D01*
X159444779Y-110420781D01*
X159444779Y-110420782D01*
X159381523Y-110615461D01*
X159381523Y-110615464D01*
X159349500Y-110817648D01*
X159349500Y-111022351D01*
X159381522Y-111224534D01*
X159444781Y-111419223D01*
X159537715Y-111601613D01*
X159658028Y-111767213D01*
X159802786Y-111911971D01*
X159957749Y-112024556D01*
X159968390Y-112032287D01*
X160084607Y-112091503D01*
X160150776Y-112125218D01*
X160150778Y-112125218D01*
X160150781Y-112125220D01*
X160255137Y-112159127D01*
X160345465Y-112188477D01*
X160446557Y-112204488D01*
X160547648Y-112220500D01*
X160547649Y-112220500D01*
X160752351Y-112220500D01*
X160752352Y-112220500D01*
X160954534Y-112188477D01*
X161149219Y-112125220D01*
X161331610Y-112032287D01*
X161424590Y-111964732D01*
X161497213Y-111911971D01*
X161497215Y-111911968D01*
X161497219Y-111911966D01*
X161641966Y-111767219D01*
X161641968Y-111767215D01*
X161641971Y-111767213D01*
X161694732Y-111694590D01*
X161762287Y-111601610D01*
X161855220Y-111419219D01*
X161918477Y-111224534D01*
X161950500Y-111022352D01*
X161950500Y-110817648D01*
X161918477Y-110615466D01*
X161918476Y-110615464D01*
X161855218Y-110420776D01*
X161806591Y-110325341D01*
X161762287Y-110238390D01*
X161730273Y-110194326D01*
X161641971Y-110072786D01*
X161497213Y-109928028D01*
X161331613Y-109807715D01*
X161331612Y-109807714D01*
X161331610Y-109807713D01*
X161274653Y-109778691D01*
X161149223Y-109714781D01*
X160954534Y-109651522D01*
X160779995Y-109623878D01*
X160752352Y-109619500D01*
X160547648Y-109619500D01*
X160480254Y-109630174D01*
X160345464Y-109651523D01*
X160345461Y-109651523D01*
X160150782Y-109714779D01*
X160150781Y-109714779D01*
X160068302Y-109756804D01*
X159999632Y-109769700D01*
X159934892Y-109743423D01*
X159924327Y-109734000D01*
X154104864Y-103914537D01*
X154104862Y-103914535D01*
X154067750Y-103893108D01*
X154030640Y-103871682D01*
X153989246Y-103860591D01*
X153947853Y-103849500D01*
X153947852Y-103849500D01*
X107309500Y-103849500D01*
X107242461Y-103829815D01*
X107196706Y-103777011D01*
X107185500Y-103725500D01*
X107185500Y-90997147D01*
X107534500Y-90997147D01*
X107534500Y-103132147D01*
X107534500Y-103217853D01*
X107535811Y-103222743D01*
X107556682Y-103300637D01*
X107556685Y-103300644D01*
X107599530Y-103374855D01*
X107599534Y-103374860D01*
X107599535Y-103374862D01*
X107660138Y-103435465D01*
X107660140Y-103435466D01*
X107660144Y-103435469D01*
X107734355Y-103478314D01*
X107734362Y-103478318D01*
X107817147Y-103500500D01*
X171768811Y-103500500D01*
X171835850Y-103520185D01*
X171856492Y-103536819D01*
X178514000Y-110194327D01*
X178547485Y-110255650D01*
X178542501Y-110325342D01*
X178536804Y-110338302D01*
X178494779Y-110420781D01*
X178494779Y-110420782D01*
X178431523Y-110615461D01*
X178431523Y-110615464D01*
X178399500Y-110817648D01*
X178399500Y-111022351D01*
X178431522Y-111224534D01*
X178494781Y-111419223D01*
X178587715Y-111601613D01*
X178708028Y-111767213D01*
X178852786Y-111911971D01*
X179007749Y-112024556D01*
X179018390Y-112032287D01*
X179134607Y-112091503D01*
X179200776Y-112125218D01*
X179200778Y-112125218D01*
X179200781Y-112125220D01*
X179305137Y-112159127D01*
X179395465Y-112188477D01*
X179496557Y-112204488D01*
X179597648Y-112220500D01*
X179597649Y-112220500D01*
X179802351Y-112220500D01*
X179802352Y-112220500D01*
X180004534Y-112188477D01*
X180199219Y-112125220D01*
X180381610Y-112032287D01*
X180474590Y-111964732D01*
X180547213Y-111911971D01*
X180547215Y-111911968D01*
X180547219Y-111911966D01*
X180691966Y-111767219D01*
X180691968Y-111767215D01*
X180691971Y-111767213D01*
X180744732Y-111694590D01*
X180812287Y-111601610D01*
X180905220Y-111419219D01*
X180968477Y-111224534D01*
X181000500Y-111022352D01*
X181000500Y-110817648D01*
X180968477Y-110615466D01*
X180968476Y-110615464D01*
X180905218Y-110420776D01*
X180856591Y-110325341D01*
X180812287Y-110238390D01*
X180780273Y-110194326D01*
X180691971Y-110072786D01*
X180547213Y-109928028D01*
X180381613Y-109807715D01*
X180381612Y-109807714D01*
X180381610Y-109807713D01*
X180324653Y-109778691D01*
X180199223Y-109714781D01*
X180004534Y-109651522D01*
X179829995Y-109623878D01*
X179802352Y-109619500D01*
X179597648Y-109619500D01*
X179530254Y-109630174D01*
X179395464Y-109651523D01*
X179395461Y-109651523D01*
X179200782Y-109714779D01*
X179200781Y-109714779D01*
X179118302Y-109756804D01*
X179049632Y-109769700D01*
X178984892Y-109743423D01*
X178974327Y-109734000D01*
X172154864Y-102914537D01*
X172154862Y-102914535D01*
X172117750Y-102893108D01*
X172080640Y-102871682D01*
X172039246Y-102860591D01*
X171997853Y-102849500D01*
X171997852Y-102849500D01*
X108309500Y-102849500D01*
X108242461Y-102829815D01*
X108196706Y-102777011D01*
X108185500Y-102725500D01*
X108185500Y-101878711D01*
X183209500Y-101878711D01*
X183209500Y-102121288D01*
X183241161Y-102361785D01*
X183303947Y-102596104D01*
X183396773Y-102820205D01*
X183396776Y-102820212D01*
X183518064Y-103030289D01*
X183518066Y-103030292D01*
X183518067Y-103030293D01*
X183665733Y-103222736D01*
X183665739Y-103222743D01*
X183837256Y-103394260D01*
X183837262Y-103394265D01*
X184029711Y-103541936D01*
X184239788Y-103663224D01*
X184463900Y-103756054D01*
X184698211Y-103818838D01*
X184878586Y-103842584D01*
X184938711Y-103850500D01*
X184938712Y-103850500D01*
X185181289Y-103850500D01*
X185229388Y-103844167D01*
X185421789Y-103818838D01*
X185656100Y-103756054D01*
X185880212Y-103663224D01*
X186090289Y-103541936D01*
X186282738Y-103394265D01*
X186454265Y-103222738D01*
X186601936Y-103030289D01*
X186723224Y-102820212D01*
X186816054Y-102596100D01*
X186878838Y-102361789D01*
X186910500Y-102121288D01*
X186910500Y-101878712D01*
X186878838Y-101638211D01*
X186816054Y-101403900D01*
X186723224Y-101179788D01*
X186601936Y-100969711D01*
X186454265Y-100777262D01*
X186454260Y-100777256D01*
X186282743Y-100605739D01*
X186282736Y-100605733D01*
X186090293Y-100458067D01*
X186090292Y-100458066D01*
X186090289Y-100458064D01*
X185880212Y-100336776D01*
X185880205Y-100336773D01*
X185656104Y-100243947D01*
X185421785Y-100181161D01*
X185181289Y-100149500D01*
X185181288Y-100149500D01*
X184938712Y-100149500D01*
X184938711Y-100149500D01*
X184698214Y-100181161D01*
X184463895Y-100243947D01*
X184239794Y-100336773D01*
X184239785Y-100336777D01*
X184029706Y-100458067D01*
X183837263Y-100605733D01*
X183837256Y-100605739D01*
X183665739Y-100777256D01*
X183665733Y-100777263D01*
X183518067Y-100969706D01*
X183396777Y-101179785D01*
X183396773Y-101179794D01*
X183303947Y-101403895D01*
X183241161Y-101638214D01*
X183209500Y-101878711D01*
X108185500Y-101878711D01*
X108185500Y-99525197D01*
X108477500Y-99525197D01*
X108477500Y-99714802D01*
X108514486Y-99900743D01*
X108514488Y-99900751D01*
X108587042Y-100075912D01*
X108692377Y-100233558D01*
X108826441Y-100367622D01*
X108931300Y-100437686D01*
X108984085Y-100472956D01*
X109159249Y-100545512D01*
X109345197Y-100582499D01*
X109345201Y-100582500D01*
X109345202Y-100582500D01*
X109534799Y-100582500D01*
X109534800Y-100582499D01*
X109720751Y-100545512D01*
X109895915Y-100472956D01*
X110053558Y-100367622D01*
X110187622Y-100233558D01*
X110292956Y-100075915D01*
X110365512Y-99900751D01*
X110402500Y-99714798D01*
X110402500Y-99525202D01*
X110402499Y-99525197D01*
X123717500Y-99525197D01*
X123717500Y-99714802D01*
X123754486Y-99900743D01*
X123754488Y-99900751D01*
X123827042Y-100075912D01*
X123932377Y-100233558D01*
X124066441Y-100367622D01*
X124171300Y-100437686D01*
X124224085Y-100472956D01*
X124399249Y-100545512D01*
X124585197Y-100582499D01*
X124585201Y-100582500D01*
X124585202Y-100582500D01*
X124774799Y-100582500D01*
X124774800Y-100582499D01*
X124960751Y-100545512D01*
X125135915Y-100472956D01*
X125293558Y-100367622D01*
X125427622Y-100233558D01*
X125532956Y-100075915D01*
X125605512Y-99900751D01*
X125642500Y-99714798D01*
X125642500Y-99525202D01*
X125605512Y-99339249D01*
X125532956Y-99164085D01*
X125497686Y-99111300D01*
X125427622Y-99006441D01*
X125293558Y-98872377D01*
X125135912Y-98767042D01*
X124960751Y-98694488D01*
X124960743Y-98694486D01*
X124774802Y-98657500D01*
X124774798Y-98657500D01*
X124585202Y-98657500D01*
X124585197Y-98657500D01*
X124399256Y-98694486D01*
X124399248Y-98694488D01*
X124224087Y-98767042D01*
X124066441Y-98872377D01*
X123932377Y-99006441D01*
X123827042Y-99164087D01*
X123754488Y-99339248D01*
X123754486Y-99339256D01*
X123717500Y-99525197D01*
X110402499Y-99525197D01*
X110365512Y-99339249D01*
X110292956Y-99164085D01*
X110257686Y-99111300D01*
X110187622Y-99006441D01*
X110053558Y-98872377D01*
X109895912Y-98767042D01*
X109720751Y-98694488D01*
X109720743Y-98694486D01*
X109534802Y-98657500D01*
X109534798Y-98657500D01*
X109345202Y-98657500D01*
X109345197Y-98657500D01*
X109159256Y-98694486D01*
X109159248Y-98694488D01*
X108984087Y-98767042D01*
X108826441Y-98872377D01*
X108692377Y-99006441D01*
X108587042Y-99164087D01*
X108514488Y-99339248D01*
X108514486Y-99339256D01*
X108477500Y-99525197D01*
X108185500Y-99525197D01*
X108185500Y-96985197D01*
X108477500Y-96985197D01*
X108477500Y-97174802D01*
X108514486Y-97360743D01*
X108514488Y-97360751D01*
X108587042Y-97535912D01*
X108692377Y-97693558D01*
X108826441Y-97827622D01*
X108931300Y-97897686D01*
X108984085Y-97932956D01*
X109159249Y-98005512D01*
X109345197Y-98042499D01*
X109345201Y-98042500D01*
X109345202Y-98042500D01*
X109534799Y-98042500D01*
X109534800Y-98042499D01*
X109720751Y-98005512D01*
X109895915Y-97932956D01*
X110053558Y-97827622D01*
X110187622Y-97693558D01*
X110292956Y-97535915D01*
X110365512Y-97360751D01*
X110402500Y-97174798D01*
X110402500Y-96985202D01*
X110402499Y-96985197D01*
X123717500Y-96985197D01*
X123717500Y-97174802D01*
X123754486Y-97360743D01*
X123754488Y-97360751D01*
X123827042Y-97535912D01*
X123932377Y-97693558D01*
X124066441Y-97827622D01*
X124171300Y-97897686D01*
X124224085Y-97932956D01*
X124399249Y-98005512D01*
X124585197Y-98042499D01*
X124585201Y-98042500D01*
X124585202Y-98042500D01*
X124774799Y-98042500D01*
X124774800Y-98042499D01*
X124960751Y-98005512D01*
X125135915Y-97932956D01*
X125293558Y-97827622D01*
X125427622Y-97693558D01*
X125532956Y-97535915D01*
X125605512Y-97360751D01*
X125642500Y-97174798D01*
X125642500Y-96985202D01*
X125605512Y-96799249D01*
X125532956Y-96624085D01*
X125497686Y-96571300D01*
X125427622Y-96466441D01*
X125293558Y-96332377D01*
X125135912Y-96227042D01*
X124960751Y-96154488D01*
X124960743Y-96154486D01*
X124774802Y-96117500D01*
X124774798Y-96117500D01*
X124585202Y-96117500D01*
X124585197Y-96117500D01*
X124399256Y-96154486D01*
X124399248Y-96154488D01*
X124224087Y-96227042D01*
X124066441Y-96332377D01*
X123932377Y-96466441D01*
X123827042Y-96624087D01*
X123754488Y-96799248D01*
X123754486Y-96799256D01*
X123717500Y-96985197D01*
X110402499Y-96985197D01*
X110365512Y-96799249D01*
X110292956Y-96624085D01*
X110257686Y-96571300D01*
X110187622Y-96466441D01*
X110053558Y-96332377D01*
X109895912Y-96227042D01*
X109720751Y-96154488D01*
X109720743Y-96154486D01*
X109534802Y-96117500D01*
X109534798Y-96117500D01*
X109345202Y-96117500D01*
X109345197Y-96117500D01*
X109159256Y-96154486D01*
X109159248Y-96154488D01*
X108984087Y-96227042D01*
X108826441Y-96332377D01*
X108692377Y-96466441D01*
X108587042Y-96624087D01*
X108514488Y-96799248D01*
X108514486Y-96799256D01*
X108477500Y-96985197D01*
X108185500Y-96985197D01*
X108185500Y-95706530D01*
X175449500Y-95706530D01*
X175449500Y-95913469D01*
X175489868Y-96116412D01*
X175489870Y-96116420D01*
X175569059Y-96307598D01*
X175626541Y-96393626D01*
X175684024Y-96479657D01*
X175830342Y-96625975D01*
X175830345Y-96625977D01*
X176002402Y-96740941D01*
X176193580Y-96820130D01*
X176396530Y-96860499D01*
X176396534Y-96860500D01*
X176396535Y-96860500D01*
X176603466Y-96860500D01*
X176603467Y-96860499D01*
X176806420Y-96820130D01*
X176997598Y-96740941D01*
X177169655Y-96625977D01*
X177315977Y-96479655D01*
X177430941Y-96307598D01*
X177510130Y-96116420D01*
X177550500Y-95913465D01*
X177550500Y-95706535D01*
X177510130Y-95503580D01*
X177430941Y-95312402D01*
X177315977Y-95140345D01*
X177315975Y-95140342D01*
X177169657Y-94994024D01*
X177083626Y-94936541D01*
X176997598Y-94879059D01*
X176806420Y-94799870D01*
X176806412Y-94799868D01*
X176603469Y-94759500D01*
X176603465Y-94759500D01*
X176396535Y-94759500D01*
X176396530Y-94759500D01*
X176193587Y-94799868D01*
X176193579Y-94799870D01*
X176002403Y-94879058D01*
X175830342Y-94994024D01*
X175684024Y-95140342D01*
X175569058Y-95312403D01*
X175489870Y-95503579D01*
X175489868Y-95503587D01*
X175449500Y-95706530D01*
X108185500Y-95706530D01*
X108185500Y-94445197D01*
X108477500Y-94445197D01*
X108477500Y-94634802D01*
X108514486Y-94820743D01*
X108514488Y-94820751D01*
X108587042Y-94995912D01*
X108692377Y-95153558D01*
X108826441Y-95287622D01*
X108863529Y-95312403D01*
X108984085Y-95392956D01*
X109159249Y-95465512D01*
X109345197Y-95502499D01*
X109345201Y-95502500D01*
X109345202Y-95502500D01*
X109534799Y-95502500D01*
X109534800Y-95502499D01*
X109720751Y-95465512D01*
X109895915Y-95392956D01*
X110053558Y-95287622D01*
X110187622Y-95153558D01*
X110292956Y-94995915D01*
X110365512Y-94820751D01*
X110402500Y-94634798D01*
X110402500Y-94445202D01*
X110402499Y-94445197D01*
X123717500Y-94445197D01*
X123717500Y-94634802D01*
X123754486Y-94820743D01*
X123754488Y-94820751D01*
X123827042Y-94995912D01*
X123932377Y-95153558D01*
X124066441Y-95287622D01*
X124103529Y-95312403D01*
X124224085Y-95392956D01*
X124399249Y-95465512D01*
X124585197Y-95502499D01*
X124585201Y-95502500D01*
X124585202Y-95502500D01*
X124774799Y-95502500D01*
X124774800Y-95502499D01*
X124960751Y-95465512D01*
X125135915Y-95392956D01*
X125293558Y-95287622D01*
X125427622Y-95153558D01*
X125532956Y-94995915D01*
X125605512Y-94820751D01*
X125642500Y-94634798D01*
X125642500Y-94445202D01*
X125605512Y-94259249D01*
X125532956Y-94084085D01*
X125497686Y-94031300D01*
X125427622Y-93926441D01*
X125293558Y-93792377D01*
X125135912Y-93687042D01*
X124960751Y-93614488D01*
X124960743Y-93614486D01*
X124774802Y-93577500D01*
X124774798Y-93577500D01*
X124585202Y-93577500D01*
X124585197Y-93577500D01*
X124399256Y-93614486D01*
X124399248Y-93614488D01*
X124224087Y-93687042D01*
X124066441Y-93792377D01*
X123932377Y-93926441D01*
X123827042Y-94084087D01*
X123754488Y-94259248D01*
X123754486Y-94259256D01*
X123717500Y-94445197D01*
X110402499Y-94445197D01*
X110365512Y-94259249D01*
X110292956Y-94084085D01*
X110257686Y-94031300D01*
X110187622Y-93926441D01*
X110053558Y-93792377D01*
X109895912Y-93687042D01*
X109720751Y-93614488D01*
X109720743Y-93614486D01*
X109534802Y-93577500D01*
X109534798Y-93577500D01*
X109345202Y-93577500D01*
X109345197Y-93577500D01*
X109159256Y-93614486D01*
X109159248Y-93614488D01*
X108984087Y-93687042D01*
X108826441Y-93792377D01*
X108692377Y-93926441D01*
X108587042Y-94084087D01*
X108514488Y-94259248D01*
X108514486Y-94259256D01*
X108477500Y-94445197D01*
X108185500Y-94445197D01*
X108185500Y-93166530D01*
X175449500Y-93166530D01*
X175449500Y-93373469D01*
X175489868Y-93576412D01*
X175489870Y-93576420D01*
X175569059Y-93767598D01*
X175626541Y-93853626D01*
X175684024Y-93939657D01*
X175830342Y-94085975D01*
X175830345Y-94085977D01*
X176002402Y-94200941D01*
X176193580Y-94280130D01*
X176396530Y-94320499D01*
X176396534Y-94320500D01*
X176396535Y-94320500D01*
X176603466Y-94320500D01*
X176603467Y-94320499D01*
X176806420Y-94280130D01*
X176997598Y-94200941D01*
X177169655Y-94085977D01*
X177315977Y-93939655D01*
X177430941Y-93767598D01*
X177510130Y-93576420D01*
X177550500Y-93373465D01*
X177550500Y-93166535D01*
X177510130Y-92963580D01*
X177430941Y-92772402D01*
X177315977Y-92600345D01*
X177315975Y-92600342D01*
X177169657Y-92454024D01*
X177083626Y-92396541D01*
X176997598Y-92339059D01*
X176806420Y-92259870D01*
X176806412Y-92259868D01*
X176603469Y-92219500D01*
X176603465Y-92219500D01*
X176396535Y-92219500D01*
X176396530Y-92219500D01*
X176193587Y-92259868D01*
X176193579Y-92259870D01*
X176002403Y-92339058D01*
X175830342Y-92454024D01*
X175684024Y-92600342D01*
X175569058Y-92772403D01*
X175489870Y-92963579D01*
X175489868Y-92963587D01*
X175449500Y-93166530D01*
X108185500Y-93166530D01*
X108185500Y-91905197D01*
X108477500Y-91905197D01*
X108477500Y-92094802D01*
X108514486Y-92280743D01*
X108514488Y-92280751D01*
X108587042Y-92455912D01*
X108692377Y-92613558D01*
X108826441Y-92747622D01*
X108863529Y-92772403D01*
X108984085Y-92852956D01*
X109159249Y-92925512D01*
X109345197Y-92962499D01*
X109345201Y-92962500D01*
X109345202Y-92962500D01*
X109534799Y-92962500D01*
X109534800Y-92962499D01*
X109720751Y-92925512D01*
X109895915Y-92852956D01*
X110053558Y-92747622D01*
X110187622Y-92613558D01*
X110292956Y-92455915D01*
X110365512Y-92280751D01*
X110402500Y-92094798D01*
X110402500Y-91905202D01*
X110402499Y-91905197D01*
X123717500Y-91905197D01*
X123717500Y-92094802D01*
X123754486Y-92280743D01*
X123754488Y-92280751D01*
X123827042Y-92455912D01*
X123932377Y-92613558D01*
X124066441Y-92747622D01*
X124103529Y-92772403D01*
X124224085Y-92852956D01*
X124399249Y-92925512D01*
X124585197Y-92962499D01*
X124585201Y-92962500D01*
X124585202Y-92962500D01*
X124774799Y-92962500D01*
X124774800Y-92962499D01*
X124960751Y-92925512D01*
X125135915Y-92852956D01*
X125293558Y-92747622D01*
X125427622Y-92613558D01*
X125532956Y-92455915D01*
X125605512Y-92280751D01*
X125642500Y-92094798D01*
X125642500Y-91905202D01*
X125605512Y-91719249D01*
X125532956Y-91544085D01*
X125497686Y-91491300D01*
X125427622Y-91386441D01*
X125293558Y-91252377D01*
X125135912Y-91147042D01*
X124960751Y-91074488D01*
X124960743Y-91074486D01*
X124774802Y-91037500D01*
X124774798Y-91037500D01*
X124585202Y-91037500D01*
X124585197Y-91037500D01*
X124399256Y-91074486D01*
X124399248Y-91074488D01*
X124224087Y-91147042D01*
X124066441Y-91252377D01*
X123932377Y-91386441D01*
X123827042Y-91544087D01*
X123754488Y-91719248D01*
X123754486Y-91719256D01*
X123717500Y-91905197D01*
X110402499Y-91905197D01*
X110365512Y-91719249D01*
X110292956Y-91544085D01*
X110257686Y-91491300D01*
X110187622Y-91386441D01*
X110053558Y-91252377D01*
X109895912Y-91147042D01*
X109720751Y-91074488D01*
X109720743Y-91074486D01*
X109534802Y-91037500D01*
X109534798Y-91037500D01*
X109345202Y-91037500D01*
X109345197Y-91037500D01*
X109159256Y-91074486D01*
X109159248Y-91074488D01*
X108984087Y-91147042D01*
X108826441Y-91252377D01*
X108692377Y-91386441D01*
X108587042Y-91544087D01*
X108514488Y-91719248D01*
X108514486Y-91719256D01*
X108477500Y-91905197D01*
X108185500Y-91905197D01*
X108185500Y-91226188D01*
X108205185Y-91159149D01*
X108221815Y-91138511D01*
X108733795Y-90626530D01*
X175449500Y-90626530D01*
X175449500Y-90833469D01*
X175465591Y-90914362D01*
X175489870Y-91036420D01*
X175569059Y-91227598D01*
X175626541Y-91313626D01*
X175684024Y-91399657D01*
X175830342Y-91545975D01*
X175830345Y-91545977D01*
X176002402Y-91660941D01*
X176193580Y-91740130D01*
X176396530Y-91780499D01*
X176396534Y-91780500D01*
X176396535Y-91780500D01*
X176603466Y-91780500D01*
X176603467Y-91780499D01*
X176806420Y-91740130D01*
X176997598Y-91660941D01*
X177169655Y-91545977D01*
X177315977Y-91399655D01*
X177430941Y-91227598D01*
X177510130Y-91036420D01*
X177550500Y-90833465D01*
X177550500Y-90626535D01*
X177510130Y-90423580D01*
X177430941Y-90232402D01*
X177315977Y-90060345D01*
X177315975Y-90060342D01*
X177169657Y-89914024D01*
X177083626Y-89856541D01*
X176997598Y-89799059D01*
X176806420Y-89719870D01*
X176806412Y-89719868D01*
X176603469Y-89679500D01*
X176603465Y-89679500D01*
X176396535Y-89679500D01*
X176396530Y-89679500D01*
X176193587Y-89719868D01*
X176193579Y-89719870D01*
X176002403Y-89799058D01*
X175830342Y-89914024D01*
X175684024Y-90060342D01*
X175569058Y-90232403D01*
X175489870Y-90423579D01*
X175489868Y-90423587D01*
X175449500Y-90626530D01*
X108733795Y-90626530D01*
X108970249Y-90390076D01*
X109031570Y-90356593D01*
X109101262Y-90361577D01*
X109105361Y-90363190D01*
X109130316Y-90373527D01*
X109159243Y-90385510D01*
X109159245Y-90385510D01*
X109159249Y-90385512D01*
X109345197Y-90422499D01*
X109345201Y-90422500D01*
X109345202Y-90422500D01*
X109534799Y-90422500D01*
X109534800Y-90422499D01*
X109720751Y-90385512D01*
X109895915Y-90312956D01*
X110053558Y-90207622D01*
X110187622Y-90073558D01*
X110292956Y-89915915D01*
X110365512Y-89740751D01*
X110402500Y-89554798D01*
X110402500Y-89365202D01*
X110402499Y-89365197D01*
X123717500Y-89365197D01*
X123717500Y-89554802D01*
X123754486Y-89740743D01*
X123754488Y-89740751D01*
X123827042Y-89915912D01*
X123932377Y-90073558D01*
X124066441Y-90207622D01*
X124103529Y-90232403D01*
X124224085Y-90312956D01*
X124399249Y-90385512D01*
X124585197Y-90422499D01*
X124585201Y-90422500D01*
X124585202Y-90422500D01*
X124774799Y-90422500D01*
X124774800Y-90422499D01*
X124960751Y-90385512D01*
X125135915Y-90312956D01*
X125293558Y-90207622D01*
X125427622Y-90073558D01*
X125532956Y-89915915D01*
X125605512Y-89740751D01*
X125642500Y-89554798D01*
X125642500Y-89365202D01*
X125605512Y-89179249D01*
X125532956Y-89004085D01*
X125497686Y-88951300D01*
X125427622Y-88846441D01*
X125293558Y-88712377D01*
X125135912Y-88607042D01*
X124960751Y-88534488D01*
X124960743Y-88534486D01*
X124774802Y-88497500D01*
X124774798Y-88497500D01*
X124585202Y-88497500D01*
X124585197Y-88497500D01*
X124399256Y-88534486D01*
X124399248Y-88534488D01*
X124224087Y-88607042D01*
X124066441Y-88712377D01*
X123932377Y-88846441D01*
X123827042Y-89004087D01*
X123754488Y-89179248D01*
X123754486Y-89179256D01*
X123717500Y-89365197D01*
X110402499Y-89365197D01*
X110365512Y-89179249D01*
X110292956Y-89004085D01*
X110257686Y-88951300D01*
X110187622Y-88846441D01*
X110053558Y-88712377D01*
X109895912Y-88607042D01*
X109720751Y-88534488D01*
X109720743Y-88534486D01*
X109534802Y-88497500D01*
X109534798Y-88497500D01*
X109345202Y-88497500D01*
X109345197Y-88497500D01*
X109159256Y-88534486D01*
X109159248Y-88534488D01*
X108984087Y-88607042D01*
X108826441Y-88712377D01*
X108692377Y-88846441D01*
X108587042Y-89004087D01*
X108514488Y-89179248D01*
X108514486Y-89179256D01*
X108477500Y-89365197D01*
X108477500Y-89554802D01*
X108514486Y-89740743D01*
X108514489Y-89740755D01*
X108536800Y-89794618D01*
X108544269Y-89864087D01*
X108512994Y-89926566D01*
X108509920Y-89929751D01*
X107599537Y-90840135D01*
X107599533Y-90840141D01*
X107556681Y-90914361D01*
X107556682Y-90914362D01*
X107534500Y-90997147D01*
X107185500Y-90997147D01*
X107185500Y-89686188D01*
X107205185Y-89619149D01*
X107221814Y-89598512D01*
X108970249Y-87850076D01*
X109031570Y-87816593D01*
X109101262Y-87821577D01*
X109105361Y-87823190D01*
X109130316Y-87833527D01*
X109159243Y-87845510D01*
X109159245Y-87845510D01*
X109159249Y-87845512D01*
X109345197Y-87882499D01*
X109345201Y-87882500D01*
X109345202Y-87882500D01*
X109534799Y-87882500D01*
X109534800Y-87882499D01*
X109720751Y-87845512D01*
X109895915Y-87772956D01*
X110053558Y-87667622D01*
X110053561Y-87667619D01*
X110084445Y-87636736D01*
X110187619Y-87533561D01*
X110187622Y-87533558D01*
X110292956Y-87375915D01*
X110365512Y-87200751D01*
X110402500Y-87014798D01*
X110402500Y-86825202D01*
X110402500Y-86825199D01*
X110400550Y-86815397D01*
X123618000Y-86815397D01*
X123618000Y-87024602D01*
X123658809Y-87229766D01*
X123658812Y-87229775D01*
X123738863Y-87423038D01*
X123738869Y-87423049D01*
X123829371Y-87558495D01*
X123829372Y-87558496D01*
X124276957Y-87110910D01*
X124324311Y-87192930D01*
X124407070Y-87275689D01*
X124489089Y-87323042D01*
X124041503Y-87770627D01*
X124041503Y-87770629D01*
X124176943Y-87861126D01*
X124176961Y-87861136D01*
X124370224Y-87941187D01*
X124370233Y-87941190D01*
X124575397Y-87981999D01*
X124575400Y-87982000D01*
X124784600Y-87982000D01*
X124784602Y-87981999D01*
X124989766Y-87941190D01*
X124989775Y-87941187D01*
X125183046Y-87861132D01*
X125183048Y-87861131D01*
X125318495Y-87770628D01*
X125318495Y-87770627D01*
X124870910Y-87323042D01*
X124952930Y-87275689D01*
X125035689Y-87192930D01*
X125083042Y-87110910D01*
X125530627Y-87558495D01*
X125530628Y-87558495D01*
X125621131Y-87423048D01*
X125621132Y-87423046D01*
X125674085Y-87295205D01*
X175350000Y-87295205D01*
X175350000Y-88040000D01*
X176022555Y-88040000D01*
X176000000Y-88124174D01*
X176000000Y-88255826D01*
X176022555Y-88340000D01*
X175350001Y-88340000D01*
X175350001Y-89084785D01*
X175350002Y-89084808D01*
X175352908Y-89109869D01*
X175352909Y-89109873D01*
X175398211Y-89212474D01*
X175398214Y-89212479D01*
X175477520Y-89291785D01*
X175477525Y-89291788D01*
X175580123Y-89337089D01*
X175605206Y-89339999D01*
X176349999Y-89339999D01*
X176350000Y-89339998D01*
X176350000Y-88667445D01*
X176434174Y-88690000D01*
X176565826Y-88690000D01*
X176650000Y-88667445D01*
X176650000Y-89339999D01*
X177394786Y-89339999D01*
X177394808Y-89339997D01*
X177419869Y-89337091D01*
X177419873Y-89337090D01*
X177522474Y-89291788D01*
X177522479Y-89291785D01*
X177601785Y-89212479D01*
X177601788Y-89212474D01*
X177647089Y-89109877D01*
X177647089Y-89109875D01*
X177649999Y-89084794D01*
X177650000Y-89084791D01*
X177650000Y-88340000D01*
X176977445Y-88340000D01*
X177000000Y-88255826D01*
X177000000Y-88124174D01*
X176977445Y-88040000D01*
X177649999Y-88040000D01*
X177649999Y-87295214D01*
X177649997Y-87295191D01*
X177647091Y-87270130D01*
X177647090Y-87270126D01*
X177601788Y-87167525D01*
X177601785Y-87167520D01*
X177522479Y-87088214D01*
X177522474Y-87088211D01*
X177419876Y-87042910D01*
X177394794Y-87040000D01*
X176650000Y-87040000D01*
X176650000Y-87712554D01*
X176565826Y-87690000D01*
X176434174Y-87690000D01*
X176350000Y-87712554D01*
X176350000Y-87040000D01*
X175605214Y-87040000D01*
X175605191Y-87040002D01*
X175580130Y-87042908D01*
X175580126Y-87042909D01*
X175477525Y-87088211D01*
X175477520Y-87088214D01*
X175398214Y-87167520D01*
X175398211Y-87167525D01*
X175352910Y-87270122D01*
X175352910Y-87270124D01*
X175350000Y-87295205D01*
X125674085Y-87295205D01*
X125695221Y-87244178D01*
X125695223Y-87244174D01*
X125701188Y-87229771D01*
X125701190Y-87229766D01*
X125741999Y-87024602D01*
X125742000Y-87024600D01*
X125742000Y-86815399D01*
X125741999Y-86815397D01*
X125701190Y-86610233D01*
X125701187Y-86610224D01*
X125621136Y-86416961D01*
X125621126Y-86416943D01*
X125530629Y-86281503D01*
X125530627Y-86281503D01*
X125083041Y-86729088D01*
X125035689Y-86647070D01*
X124952930Y-86564311D01*
X124870910Y-86516957D01*
X125318496Y-86069372D01*
X125318495Y-86069371D01*
X125183049Y-85978869D01*
X125183038Y-85978863D01*
X124989775Y-85898812D01*
X124989766Y-85898809D01*
X124784601Y-85858000D01*
X124575399Y-85858000D01*
X124370233Y-85898809D01*
X124370224Y-85898812D01*
X124176961Y-85978863D01*
X124176950Y-85978869D01*
X124041503Y-86069371D01*
X124041502Y-86069371D01*
X124489089Y-86516957D01*
X124407070Y-86564311D01*
X124324311Y-86647070D01*
X124276957Y-86729088D01*
X123829371Y-86281502D01*
X123829371Y-86281503D01*
X123738869Y-86416950D01*
X123738863Y-86416961D01*
X123658812Y-86610224D01*
X123658809Y-86610233D01*
X123618000Y-86815397D01*
X110400550Y-86815397D01*
X110379161Y-86707868D01*
X110365512Y-86639249D01*
X110292956Y-86464085D01*
X110257686Y-86411300D01*
X110187622Y-86306441D01*
X110053558Y-86172377D01*
X109895912Y-86067042D01*
X109720751Y-85994488D01*
X109720743Y-85994486D01*
X109534802Y-85957500D01*
X109534798Y-85957500D01*
X109345202Y-85957500D01*
X109345197Y-85957500D01*
X109159256Y-85994486D01*
X109159248Y-85994488D01*
X108984087Y-86067042D01*
X108826441Y-86172377D01*
X108692377Y-86306441D01*
X108587042Y-86464087D01*
X108514488Y-86639248D01*
X108514486Y-86639256D01*
X108477500Y-86825197D01*
X108477500Y-87014802D01*
X108514486Y-87200743D01*
X108514489Y-87200755D01*
X108536800Y-87254618D01*
X108544269Y-87324087D01*
X108512994Y-87386566D01*
X108509920Y-87389751D01*
X106599537Y-89300135D01*
X106599535Y-89300138D01*
X106556682Y-89374359D01*
X106534500Y-89457147D01*
X106534500Y-104217852D01*
X106556682Y-104300637D01*
X106556685Y-104300644D01*
X106599530Y-104374855D01*
X106599534Y-104374860D01*
X106599535Y-104374862D01*
X106660138Y-104435465D01*
X106660140Y-104435466D01*
X106660144Y-104435469D01*
X106734355Y-104478314D01*
X106734362Y-104478318D01*
X106743348Y-104480725D01*
X106803007Y-104517090D01*
X106833536Y-104579938D01*
X106825241Y-104649313D01*
X106780756Y-104703191D01*
X106714203Y-104724465D01*
X106711253Y-104724500D01*
X106109500Y-104724500D01*
X106042461Y-104704815D01*
X105996706Y-104652011D01*
X105985500Y-104600500D01*
X105985500Y-88346188D01*
X106005185Y-88279149D01*
X106021814Y-88258512D01*
X108970249Y-85310076D01*
X109031570Y-85276593D01*
X109101262Y-85281577D01*
X109105361Y-85283190D01*
X109130316Y-85293527D01*
X109159243Y-85305510D01*
X109159245Y-85305510D01*
X109159249Y-85305512D01*
X109345197Y-85342499D01*
X109345201Y-85342500D01*
X109345202Y-85342500D01*
X109534799Y-85342500D01*
X109534800Y-85342499D01*
X109720751Y-85305512D01*
X109895915Y-85232956D01*
X110053558Y-85127622D01*
X110187622Y-84993558D01*
X110292956Y-84835915D01*
X110365512Y-84660751D01*
X110402500Y-84474798D01*
X110402500Y-84285202D01*
X110402499Y-84285197D01*
X123717500Y-84285197D01*
X123717500Y-84474802D01*
X123754486Y-84660743D01*
X123754488Y-84660751D01*
X123827042Y-84835912D01*
X123932377Y-84993558D01*
X124066441Y-85127622D01*
X124171300Y-85197686D01*
X124224085Y-85232956D01*
X124399249Y-85305512D01*
X124585197Y-85342499D01*
X124585201Y-85342500D01*
X124585202Y-85342500D01*
X124774799Y-85342500D01*
X124774800Y-85342499D01*
X124960751Y-85305512D01*
X125135915Y-85232956D01*
X125293558Y-85127622D01*
X125427622Y-84993558D01*
X125532956Y-84835915D01*
X125605512Y-84660751D01*
X125642500Y-84474798D01*
X125642500Y-84285202D01*
X125605512Y-84099249D01*
X125532956Y-83924085D01*
X125502638Y-83878711D01*
X183209500Y-83878711D01*
X183209500Y-84121288D01*
X183241161Y-84361785D01*
X183303947Y-84596104D01*
X183384744Y-84791165D01*
X183396776Y-84820212D01*
X183518064Y-85030289D01*
X183518066Y-85030292D01*
X183518067Y-85030293D01*
X183665733Y-85222736D01*
X183665739Y-85222743D01*
X183837256Y-85394260D01*
X183837262Y-85394265D01*
X184029711Y-85541936D01*
X184239788Y-85663224D01*
X184463900Y-85756054D01*
X184698211Y-85818838D01*
X184878586Y-85842584D01*
X184938711Y-85850500D01*
X184938712Y-85850500D01*
X185181289Y-85850500D01*
X185229388Y-85844167D01*
X185421789Y-85818838D01*
X185656100Y-85756054D01*
X185880212Y-85663224D01*
X186090289Y-85541936D01*
X186282738Y-85394265D01*
X186454265Y-85222738D01*
X186601936Y-85030289D01*
X186723224Y-84820212D01*
X186816054Y-84596100D01*
X186878838Y-84361789D01*
X186910500Y-84121288D01*
X186910500Y-83878712D01*
X186878838Y-83638211D01*
X186816054Y-83403900D01*
X186723224Y-83179788D01*
X186601936Y-82969711D01*
X186454265Y-82777262D01*
X186454260Y-82777256D01*
X186282743Y-82605739D01*
X186282736Y-82605733D01*
X186090293Y-82458067D01*
X186090292Y-82458066D01*
X186090289Y-82458064D01*
X185880212Y-82336776D01*
X185880205Y-82336773D01*
X185656104Y-82243947D01*
X185421785Y-82181161D01*
X185181289Y-82149500D01*
X185181288Y-82149500D01*
X184938712Y-82149500D01*
X184938711Y-82149500D01*
X184698214Y-82181161D01*
X184463895Y-82243947D01*
X184239794Y-82336773D01*
X184239785Y-82336777D01*
X184029706Y-82458067D01*
X183837263Y-82605733D01*
X183837256Y-82605739D01*
X183665739Y-82777256D01*
X183665733Y-82777263D01*
X183518067Y-82969706D01*
X183396777Y-83179785D01*
X183396773Y-83179794D01*
X183303947Y-83403895D01*
X183241161Y-83638214D01*
X183209500Y-83878711D01*
X125502638Y-83878711D01*
X125469812Y-83829584D01*
X125427622Y-83766441D01*
X125293558Y-83632377D01*
X125135912Y-83527042D01*
X124960751Y-83454488D01*
X124960743Y-83454486D01*
X124774802Y-83417500D01*
X124774798Y-83417500D01*
X124585202Y-83417500D01*
X124585197Y-83417500D01*
X124399256Y-83454486D01*
X124399248Y-83454488D01*
X124224087Y-83527042D01*
X124066441Y-83632377D01*
X123932377Y-83766441D01*
X123827042Y-83924087D01*
X123754488Y-84099248D01*
X123754486Y-84099256D01*
X123717500Y-84285197D01*
X110402499Y-84285197D01*
X110365512Y-84099249D01*
X110292956Y-83924085D01*
X110257686Y-83871300D01*
X110187622Y-83766441D01*
X110053558Y-83632377D01*
X109895912Y-83527042D01*
X109720751Y-83454488D01*
X109720743Y-83454486D01*
X109534802Y-83417500D01*
X109534798Y-83417500D01*
X109345202Y-83417500D01*
X109345197Y-83417500D01*
X109159256Y-83454486D01*
X109159248Y-83454488D01*
X108984087Y-83527042D01*
X108826441Y-83632377D01*
X108692377Y-83766441D01*
X108587042Y-83924087D01*
X108514488Y-84099248D01*
X108514486Y-84099256D01*
X108477500Y-84285197D01*
X108477500Y-84474802D01*
X108514486Y-84660743D01*
X108514489Y-84660755D01*
X108536800Y-84714618D01*
X108544269Y-84784087D01*
X108512994Y-84846566D01*
X108509920Y-84849751D01*
X105399537Y-87960135D01*
X105399533Y-87960141D01*
X105356681Y-88034361D01*
X105356682Y-88034362D01*
X105334500Y-88117147D01*
X99560500Y-88117147D01*
X99560500Y-83878711D01*
X101209500Y-83878711D01*
X101209500Y-84121288D01*
X101241161Y-84361785D01*
X101303947Y-84596104D01*
X101384744Y-84791165D01*
X101396776Y-84820212D01*
X101518064Y-85030289D01*
X101518066Y-85030292D01*
X101518067Y-85030293D01*
X101665733Y-85222736D01*
X101665739Y-85222743D01*
X101837256Y-85394260D01*
X101837262Y-85394265D01*
X102029711Y-85541936D01*
X102239788Y-85663224D01*
X102463900Y-85756054D01*
X102698211Y-85818838D01*
X102878586Y-85842584D01*
X102938711Y-85850500D01*
X102938712Y-85850500D01*
X103181289Y-85850500D01*
X103229388Y-85844167D01*
X103421789Y-85818838D01*
X103656100Y-85756054D01*
X103880212Y-85663224D01*
X104090289Y-85541936D01*
X104282738Y-85394265D01*
X104454265Y-85222738D01*
X104601936Y-85030289D01*
X104723224Y-84820212D01*
X104816054Y-84596100D01*
X104878838Y-84361789D01*
X104910500Y-84121288D01*
X104910500Y-83878712D01*
X104878838Y-83638211D01*
X104816054Y-83403900D01*
X104723224Y-83179788D01*
X104601936Y-82969711D01*
X104454265Y-82777262D01*
X104454260Y-82777256D01*
X104282743Y-82605739D01*
X104282736Y-82605733D01*
X104090293Y-82458067D01*
X104090292Y-82458066D01*
X104090289Y-82458064D01*
X103880212Y-82336776D01*
X103880205Y-82336773D01*
X103656104Y-82243947D01*
X103421785Y-82181161D01*
X103181289Y-82149500D01*
X103181288Y-82149500D01*
X102938712Y-82149500D01*
X102938711Y-82149500D01*
X102698214Y-82181161D01*
X102463895Y-82243947D01*
X102239794Y-82336773D01*
X102239785Y-82336777D01*
X102029706Y-82458067D01*
X101837263Y-82605733D01*
X101837256Y-82605739D01*
X101665739Y-82777256D01*
X101665733Y-82777263D01*
X101518067Y-82969706D01*
X101396777Y-83179785D01*
X101396773Y-83179794D01*
X101303947Y-83403895D01*
X101241161Y-83638214D01*
X101209500Y-83878711D01*
X99560500Y-83878711D01*
X99560500Y-80624500D01*
X99580185Y-80557461D01*
X99632989Y-80511706D01*
X99684500Y-80500500D01*
X188435500Y-80500500D01*
X188502539Y-80520185D01*
G37*
%TD.AperFunction*%
%TD*%
M02*
