%TF.GenerationSoftware,KiCad,Pcbnew,10.0.6*%
%TF.CreationDate,2026-10-05T18:26:47+11:00*%
%TF.ProjectId,lainboard,6c61696e-626f-4617-9264-2e6b69636164,rev?*%
%TF.SameCoordinates,Original*%
%TF.FileFunction,Copper,L1,Top*%
%TF.FilePolarity,Positive*%
%FSLAX46Y46*%
G04 Gerber Fmt 4.6, Leading zero omitted, Abs format (unit mm)*
G04 Created by KiCad (PCBNEW 10.0.6) date 2026-10-05 18:26:47*
%MOMM*%
%LPD*%
G01*
G04 APERTURE LIST*
G04 Aperture macros list*
%AMRoundRect*
0 Rectangle with rounded corners*
0 $1 Rounding radius*
0 $2 $3 $4 $5 $6 $7 $8 $9 X,Y pos of 4 corners*
0 Add a 4 corners polygon primitive as box body*
4,1,4,$2,$3,$4,$5,$6,$7,$8,$9,$2,$3,0*
0 Add four circle primitives for the rounded corners*
1,1,$1+$1,$2,$3*
1,1,$1+$1,$4,$5*
1,1,$1+$1,$6,$7*
1,1,$1+$1,$8,$9*
0 Add four rect primitives between the rounded corners*
20,1,$1+$1,$2,$3,$4,$5,0*
20,1,$1+$1,$4,$5,$6,$7,0*
20,1,$1+$1,$6,$7,$8,$9,0*
20,1,$1+$1,$8,$9,$2,$3,0*%
G04 Aperture macros list end*
%TA.AperFunction,SMDPad,CuDef*%
%ADD10RoundRect,0.152400X1.063600X0.609600X-1.063600X0.609600X-1.063600X-0.609600X1.063600X-0.609600X0*%
%TD*%
%TA.AperFunction,ComponentPad*%
%ADD11C,1.524000*%
%TD*%
%TA.AperFunction,SMDPad,CuDef*%
%ADD12RoundRect,0.152400X-1.063600X-0.609600X1.063600X-0.609600X1.063600X0.609600X-1.063600X0.609600X0*%
%TD*%
%TA.AperFunction,ComponentPad*%
%ADD13R,1.700000X1.700000*%
%TD*%
%TA.AperFunction,ComponentPad*%
%ADD14O,1.700000X1.700000*%
%TD*%
%TA.AperFunction,ComponentPad*%
%ADD15C,2.200000*%
%TD*%
%TA.AperFunction,Conductor*%
%ADD16C,0.250000*%
%TD*%
G04 APERTURE END LIST*
D10*
%TO.P,U1,1,PA02_A0_D0_1*%
%TO.N,Net-(U1-PA02_A0_D0)*%
X108605000Y-84380000D03*
D11*
X109440000Y-84380000D03*
D10*
%TO.P,U1,2,PA4_A1_D1_2*%
%TO.N,Net-(U1-PA4_A1_D1)*%
X108605000Y-86920000D03*
D11*
X109440000Y-86920000D03*
D10*
%TO.P,U1,3,PA10_A2_D2_3*%
%TO.N,Net-(U1-PA10_A2_D2)*%
X108605000Y-89460000D03*
D11*
X109440000Y-89460000D03*
D10*
%TO.P,U1,4,PA11_A3_D3_4*%
%TO.N,unconnected-(U1-PA11_A3_D3-Pad4)*%
X108605000Y-92000000D03*
D11*
%TO.N,unconnected-(U1-PA11_A3_D3-Pad4)_1*%
X109440000Y-92000000D03*
D10*
%TO.P,U1,5,PA8_A4_D4_SDA_5*%
%TO.N,Net-(J1-Pin_4)*%
X108605000Y-94540000D03*
D11*
X109440000Y-94540000D03*
D10*
%TO.P,U1,6,PA9_A5_D5_SCL_6*%
%TO.N,Net-(J1-Pin_3)*%
X108605000Y-97080000D03*
D11*
X109440000Y-97080000D03*
D10*
%TO.P,U1,7,PB08_A6_D6_TX_7*%
%TO.N,unconnected-(U1-PB08_A6_D6_TX-Pad7)*%
X108605000Y-99620000D03*
D11*
%TO.N,unconnected-(U1-PB08_A6_D6_TX-Pad7)_1*%
X109440000Y-99620000D03*
%TO.P,U1,8,PB09_A7_D7_RX_8*%
%TO.N,unconnected-(U1-PB09_A7_D7_RX-Pad8)_1*%
X124680000Y-99620000D03*
D12*
%TO.N,unconnected-(U1-PB09_A7_D7_RX-Pad8)*%
X125515000Y-99620000D03*
D11*
%TO.P,U1,9,PA7_A8_D8_SCK_9*%
%TO.N,unconnected-(U1-PA7_A8_D8_SCK-Pad9)*%
X124680000Y-97080000D03*
D12*
%TO.N,unconnected-(U1-PA7_A8_D8_SCK-Pad9)_1*%
X125515000Y-97080000D03*
D11*
%TO.P,U1,10,PA5_A9_D9_MISO_10*%
%TO.N,unconnected-(U1-PA5_A9_D9_MISO-Pad10)*%
X124680000Y-94540000D03*
D12*
%TO.N,unconnected-(U1-PA5_A9_D9_MISO-Pad10)_1*%
X125515000Y-94540000D03*
D11*
%TO.P,U1,11,PA6_A10_D10_MOSI_11*%
%TO.N,unconnected-(U1-PA6_A10_D10_MOSI-Pad11)*%
X124680000Y-92000000D03*
D12*
%TO.N,unconnected-(U1-PA6_A10_D10_MOSI-Pad11)_1*%
X125515000Y-92000000D03*
D11*
%TO.P,U1,12,3V3_12*%
%TO.N,+3V3*%
X124680000Y-89460000D03*
D12*
X125515000Y-89460000D03*
D11*
%TO.P,U1,13,GND_13*%
%TO.N,GND*%
X124680000Y-86920000D03*
D12*
X125515000Y-86920000D03*
D11*
%TO.P,U1,14,5V_14*%
%TO.N,unconnected-(U1-5V-Pad14)*%
X124680000Y-84380000D03*
D12*
%TO.N,unconnected-(U1-5V-Pad14)_1*%
X125515000Y-84380000D03*
%TD*%
D13*
%TO.P,J1,1,Pin_1_1*%
%TO.N,GND*%
X176500000Y-88190000D03*
D14*
%TO.P,J1,2,Pin_2_2*%
%TO.N,+3V3*%
X176500000Y-90730000D03*
%TO.P,J1,3,Pin_3_3*%
%TO.N,Net-(J1-Pin_3)*%
X176500000Y-93270000D03*
%TO.P,J1,4,Pin_4_4*%
%TO.N,Net-(J1-Pin_4)*%
X176500000Y-95810000D03*
%TD*%
D15*
%TO.P,SW3,1,1_1*%
%TO.N,Net-(U1-PA10_A2_D2)*%
X179700000Y-110920000D03*
%TO.P,SW3,2,2_2*%
%TO.N,GND*%
X173350000Y-113460000D03*
%TD*%
%TO.P,SW2,1,1_1*%
%TO.N,Net-(U1-PA4_A1_D1)*%
X160650000Y-110920000D03*
%TO.P,SW2,2,2_2*%
%TO.N,GND*%
X154300000Y-113460000D03*
%TD*%
%TO.P,SW1,1,1_1*%
%TO.N,Net-(U1-PA02_A0_D0)*%
X141600000Y-110920000D03*
%TO.P,SW1,2,2_2*%
%TO.N,GND*%
X135250000Y-113460000D03*
%TD*%
%TO.N,Net-(J1-Pin_4)*%
D16*
X173777000Y-93087000D02*
X176500000Y-95810000D01*
X110893000Y-93087000D02*
X173777000Y-93087000D01*
X109440000Y-94540000D02*
X110893000Y-93087000D01*
%TO.N,Net-(J1-Pin_3)*%
X176986701Y-96985000D02*
X177675000Y-96296701D01*
X110893000Y-95627000D02*
X174655299Y-95627000D01*
X177675000Y-96296701D02*
X177675000Y-94445000D01*
X177675000Y-94445000D02*
X176500000Y-93270000D01*
X176013299Y-96985000D02*
X176986701Y-96985000D01*
X109440000Y-97080000D02*
X110893000Y-95627000D01*
X174655299Y-95627000D02*
X176013299Y-96985000D01*
%TO.N,+3V3*%
X175230000Y-89460000D02*
X176500000Y-90730000D01*
X124680000Y-89460000D02*
X175230000Y-89460000D01*
%TD*%
M02*
