%TF.GenerationSoftware,KiCad,Pcbnew,10.0.6*%
%TF.CreationDate,2026-10-05T18:26:47+11:00*%
%TF.ProjectId,lainboard,6c61696e-626f-4617-9264-2e6b69636164,rev?*%
%TF.SameCoordinates,Original*%
%TF.FileFunction,Legend,Top*%
%TF.FilePolarity,Positive*%
%FSLAX46Y46*%
G04 Gerber Fmt 4.6, Leading zero omitted, Abs format (unit mm)*
G04 Created by KiCad (PCBNEW 10.0.6) date 2026-10-05 18:26:47*
%MOMM*%
%LPD*%
G01*
G04 APERTURE LIST*
%ADD10C,0.150000*%
%ADD11C,0.127000*%
%ADD12C,0.100000*%
%ADD13C,0.504000*%
%ADD14C,0.120000*%
%ADD15C,0.000000*%
G04 APERTURE END LIST*
D10*
X102298095Y-122304819D02*
X102298095Y-121304819D01*
X102298095Y-121781009D02*
X102869523Y-121781009D01*
X102869523Y-122304819D02*
X102869523Y-121304819D01*
X103250476Y-121304819D02*
X103869523Y-121304819D01*
X103869523Y-121304819D02*
X103536190Y-121685771D01*
X103536190Y-121685771D02*
X103679047Y-121685771D01*
X103679047Y-121685771D02*
X103774285Y-121733390D01*
X103774285Y-121733390D02*
X103821904Y-121781009D01*
X103821904Y-121781009D02*
X103869523Y-121876247D01*
X103869523Y-121876247D02*
X103869523Y-122114342D01*
X103869523Y-122114342D02*
X103821904Y-122209580D01*
X103821904Y-122209580D02*
X103774285Y-122257200D01*
X103774285Y-122257200D02*
X103679047Y-122304819D01*
X103679047Y-122304819D02*
X103393333Y-122304819D01*
X103393333Y-122304819D02*
X103298095Y-122257200D01*
X103298095Y-122257200D02*
X103250476Y-122209580D01*
X106264819Y-92886904D02*
X107074342Y-92886904D01*
X107074342Y-92886904D02*
X107169580Y-92839285D01*
X107169580Y-92839285D02*
X107217200Y-92791666D01*
X107217200Y-92791666D02*
X107264819Y-92696428D01*
X107264819Y-92696428D02*
X107264819Y-92505952D01*
X107264819Y-92505952D02*
X107217200Y-92410714D01*
X107217200Y-92410714D02*
X107169580Y-92363095D01*
X107169580Y-92363095D02*
X107074342Y-92315476D01*
X107074342Y-92315476D02*
X106264819Y-92315476D01*
X107264819Y-91315476D02*
X107264819Y-91886904D01*
X107264819Y-91601190D02*
X106264819Y-91601190D01*
X106264819Y-91601190D02*
X106407676Y-91696428D01*
X106407676Y-91696428D02*
X106502914Y-91791666D01*
X106502914Y-91791666D02*
X106550533Y-91886904D01*
X141354819Y-92243333D02*
X142069104Y-92243333D01*
X142069104Y-92243333D02*
X142211961Y-92290952D01*
X142211961Y-92290952D02*
X142307200Y-92386190D01*
X142307200Y-92386190D02*
X142354819Y-92529047D01*
X142354819Y-92529047D02*
X142354819Y-92624285D01*
X142354819Y-91243333D02*
X142354819Y-91814761D01*
X142354819Y-91529047D02*
X141354819Y-91529047D01*
X141354819Y-91529047D02*
X141497676Y-91624285D01*
X141497676Y-91624285D02*
X141592914Y-91719523D01*
X141592914Y-91719523D02*
X141640533Y-91814761D01*
X155071428Y-91454819D02*
X155261904Y-91454819D01*
X155261904Y-91454819D02*
X155357142Y-91502438D01*
X155357142Y-91502438D02*
X155452380Y-91597676D01*
X155452380Y-91597676D02*
X155499999Y-91788152D01*
X155499999Y-91788152D02*
X155499999Y-92121485D01*
X155499999Y-92121485D02*
X155452380Y-92311961D01*
X155452380Y-92311961D02*
X155357142Y-92407200D01*
X155357142Y-92407200D02*
X155261904Y-92454819D01*
X155261904Y-92454819D02*
X155071428Y-92454819D01*
X155071428Y-92454819D02*
X154976190Y-92407200D01*
X154976190Y-92407200D02*
X154880952Y-92311961D01*
X154880952Y-92311961D02*
X154833333Y-92121485D01*
X154833333Y-92121485D02*
X154833333Y-91788152D01*
X154833333Y-91788152D02*
X154880952Y-91597676D01*
X154880952Y-91597676D02*
X154976190Y-91502438D01*
X154976190Y-91502438D02*
X155071428Y-91454819D01*
X156404761Y-92454819D02*
X155928571Y-92454819D01*
X155928571Y-92454819D02*
X155928571Y-91454819D01*
X156738095Y-91931009D02*
X157071428Y-91931009D01*
X157214285Y-92454819D02*
X156738095Y-92454819D01*
X156738095Y-92454819D02*
X156738095Y-91454819D01*
X156738095Y-91454819D02*
X157214285Y-91454819D01*
X157642857Y-92454819D02*
X157642857Y-91454819D01*
X157642857Y-91454819D02*
X157880952Y-91454819D01*
X157880952Y-91454819D02*
X158023809Y-91502438D01*
X158023809Y-91502438D02*
X158119047Y-91597676D01*
X158119047Y-91597676D02*
X158166666Y-91692914D01*
X158166666Y-91692914D02*
X158214285Y-91883390D01*
X158214285Y-91883390D02*
X158214285Y-92026247D01*
X158214285Y-92026247D02*
X158166666Y-92216723D01*
X158166666Y-92216723D02*
X158119047Y-92311961D01*
X158119047Y-92311961D02*
X158023809Y-92407200D01*
X158023809Y-92407200D02*
X157880952Y-92454819D01*
X157880952Y-92454819D02*
X157642857Y-92454819D01*
X159404762Y-92454819D02*
X159404762Y-91454819D01*
X159404762Y-91454819D02*
X159785714Y-91454819D01*
X159785714Y-91454819D02*
X159880952Y-91502438D01*
X159880952Y-91502438D02*
X159928571Y-91550057D01*
X159928571Y-91550057D02*
X159976190Y-91645295D01*
X159976190Y-91645295D02*
X159976190Y-91788152D01*
X159976190Y-91788152D02*
X159928571Y-91883390D01*
X159928571Y-91883390D02*
X159880952Y-91931009D01*
X159880952Y-91931009D02*
X159785714Y-91978628D01*
X159785714Y-91978628D02*
X159404762Y-91978628D01*
X160833333Y-92454819D02*
X160833333Y-91931009D01*
X160833333Y-91931009D02*
X160785714Y-91835771D01*
X160785714Y-91835771D02*
X160690476Y-91788152D01*
X160690476Y-91788152D02*
X160500000Y-91788152D01*
X160500000Y-91788152D02*
X160404762Y-91835771D01*
X160833333Y-92407200D02*
X160738095Y-92454819D01*
X160738095Y-92454819D02*
X160500000Y-92454819D01*
X160500000Y-92454819D02*
X160404762Y-92407200D01*
X160404762Y-92407200D02*
X160357143Y-92311961D01*
X160357143Y-92311961D02*
X160357143Y-92216723D01*
X160357143Y-92216723D02*
X160404762Y-92121485D01*
X160404762Y-92121485D02*
X160500000Y-92073866D01*
X160500000Y-92073866D02*
X160738095Y-92073866D01*
X160738095Y-92073866D02*
X160833333Y-92026247D01*
X161309524Y-91788152D02*
X161309524Y-92454819D01*
X161309524Y-91883390D02*
X161357143Y-91835771D01*
X161357143Y-91835771D02*
X161452381Y-91788152D01*
X161452381Y-91788152D02*
X161595238Y-91788152D01*
X161595238Y-91788152D02*
X161690476Y-91835771D01*
X161690476Y-91835771D02*
X161738095Y-91931009D01*
X161738095Y-91931009D02*
X161738095Y-92454819D01*
X162595238Y-92407200D02*
X162500000Y-92454819D01*
X162500000Y-92454819D02*
X162309524Y-92454819D01*
X162309524Y-92454819D02*
X162214286Y-92407200D01*
X162214286Y-92407200D02*
X162166667Y-92311961D01*
X162166667Y-92311961D02*
X162166667Y-91931009D01*
X162166667Y-91931009D02*
X162214286Y-91835771D01*
X162214286Y-91835771D02*
X162309524Y-91788152D01*
X162309524Y-91788152D02*
X162500000Y-91788152D01*
X162500000Y-91788152D02*
X162595238Y-91835771D01*
X162595238Y-91835771D02*
X162642857Y-91931009D01*
X162642857Y-91931009D02*
X162642857Y-92026247D01*
X162642857Y-92026247D02*
X162166667Y-92121485D01*
X163214286Y-92454819D02*
X163119048Y-92407200D01*
X163119048Y-92407200D02*
X163071429Y-92311961D01*
X163071429Y-92311961D02*
X163071429Y-91454819D01*
X174100390Y-88799523D02*
X174062295Y-88875713D01*
X174062295Y-88875713D02*
X174062295Y-88989999D01*
X174062295Y-88989999D02*
X174100390Y-89104285D01*
X174100390Y-89104285D02*
X174176580Y-89180475D01*
X174176580Y-89180475D02*
X174252771Y-89218570D01*
X174252771Y-89218570D02*
X174405152Y-89256666D01*
X174405152Y-89256666D02*
X174519438Y-89256666D01*
X174519438Y-89256666D02*
X174671819Y-89218570D01*
X174671819Y-89218570D02*
X174748009Y-89180475D01*
X174748009Y-89180475D02*
X174824200Y-89104285D01*
X174824200Y-89104285D02*
X174862295Y-88989999D01*
X174862295Y-88989999D02*
X174862295Y-88913808D01*
X174862295Y-88913808D02*
X174824200Y-88799523D01*
X174824200Y-88799523D02*
X174786104Y-88761427D01*
X174786104Y-88761427D02*
X174519438Y-88761427D01*
X174519438Y-88761427D02*
X174519438Y-88913808D01*
X174862295Y-88418570D02*
X174062295Y-88418570D01*
X174062295Y-88418570D02*
X174862295Y-87961427D01*
X174862295Y-87961427D02*
X174062295Y-87961427D01*
X174862295Y-87580475D02*
X174062295Y-87580475D01*
X174062295Y-87580475D02*
X174062295Y-87389999D01*
X174062295Y-87389999D02*
X174100390Y-87275713D01*
X174100390Y-87275713D02*
X174176580Y-87199523D01*
X174176580Y-87199523D02*
X174252771Y-87161428D01*
X174252771Y-87161428D02*
X174405152Y-87123332D01*
X174405152Y-87123332D02*
X174519438Y-87123332D01*
X174519438Y-87123332D02*
X174671819Y-87161428D01*
X174671819Y-87161428D02*
X174748009Y-87199523D01*
X174748009Y-87199523D02*
X174824200Y-87275713D01*
X174824200Y-87275713D02*
X174862295Y-87389999D01*
X174862295Y-87389999D02*
X174862295Y-87580475D01*
X174062295Y-91796666D02*
X174862295Y-91529999D01*
X174862295Y-91529999D02*
X174062295Y-91263333D01*
X174786104Y-90539523D02*
X174824200Y-90577619D01*
X174824200Y-90577619D02*
X174862295Y-90691904D01*
X174862295Y-90691904D02*
X174862295Y-90768095D01*
X174862295Y-90768095D02*
X174824200Y-90882381D01*
X174824200Y-90882381D02*
X174748009Y-90958571D01*
X174748009Y-90958571D02*
X174671819Y-90996666D01*
X174671819Y-90996666D02*
X174519438Y-91034762D01*
X174519438Y-91034762D02*
X174405152Y-91034762D01*
X174405152Y-91034762D02*
X174252771Y-90996666D01*
X174252771Y-90996666D02*
X174176580Y-90958571D01*
X174176580Y-90958571D02*
X174100390Y-90882381D01*
X174100390Y-90882381D02*
X174062295Y-90768095D01*
X174062295Y-90768095D02*
X174062295Y-90691904D01*
X174062295Y-90691904D02*
X174100390Y-90577619D01*
X174100390Y-90577619D02*
X174138485Y-90539523D01*
X174786104Y-89739523D02*
X174824200Y-89777619D01*
X174824200Y-89777619D02*
X174862295Y-89891904D01*
X174862295Y-89891904D02*
X174862295Y-89968095D01*
X174862295Y-89968095D02*
X174824200Y-90082381D01*
X174824200Y-90082381D02*
X174748009Y-90158571D01*
X174748009Y-90158571D02*
X174671819Y-90196666D01*
X174671819Y-90196666D02*
X174519438Y-90234762D01*
X174519438Y-90234762D02*
X174405152Y-90234762D01*
X174405152Y-90234762D02*
X174252771Y-90196666D01*
X174252771Y-90196666D02*
X174176580Y-90158571D01*
X174176580Y-90158571D02*
X174100390Y-90082381D01*
X174100390Y-90082381D02*
X174062295Y-89968095D01*
X174062295Y-89968095D02*
X174062295Y-89891904D01*
X174062295Y-89891904D02*
X174100390Y-89777619D01*
X174100390Y-89777619D02*
X174138485Y-89739523D01*
X174824200Y-94222381D02*
X174862295Y-94108095D01*
X174862295Y-94108095D02*
X174862295Y-93917619D01*
X174862295Y-93917619D02*
X174824200Y-93841428D01*
X174824200Y-93841428D02*
X174786104Y-93803333D01*
X174786104Y-93803333D02*
X174709914Y-93765238D01*
X174709914Y-93765238D02*
X174633723Y-93765238D01*
X174633723Y-93765238D02*
X174557533Y-93803333D01*
X174557533Y-93803333D02*
X174519438Y-93841428D01*
X174519438Y-93841428D02*
X174481342Y-93917619D01*
X174481342Y-93917619D02*
X174443247Y-94070000D01*
X174443247Y-94070000D02*
X174405152Y-94146190D01*
X174405152Y-94146190D02*
X174367057Y-94184285D01*
X174367057Y-94184285D02*
X174290866Y-94222381D01*
X174290866Y-94222381D02*
X174214676Y-94222381D01*
X174214676Y-94222381D02*
X174138485Y-94184285D01*
X174138485Y-94184285D02*
X174100390Y-94146190D01*
X174100390Y-94146190D02*
X174062295Y-94070000D01*
X174062295Y-94070000D02*
X174062295Y-93879523D01*
X174062295Y-93879523D02*
X174100390Y-93765238D01*
X174786104Y-92965237D02*
X174824200Y-93003333D01*
X174824200Y-93003333D02*
X174862295Y-93117618D01*
X174862295Y-93117618D02*
X174862295Y-93193809D01*
X174862295Y-93193809D02*
X174824200Y-93308095D01*
X174824200Y-93308095D02*
X174748009Y-93384285D01*
X174748009Y-93384285D02*
X174671819Y-93422380D01*
X174671819Y-93422380D02*
X174519438Y-93460476D01*
X174519438Y-93460476D02*
X174405152Y-93460476D01*
X174405152Y-93460476D02*
X174252771Y-93422380D01*
X174252771Y-93422380D02*
X174176580Y-93384285D01*
X174176580Y-93384285D02*
X174100390Y-93308095D01*
X174100390Y-93308095D02*
X174062295Y-93193809D01*
X174062295Y-93193809D02*
X174062295Y-93117618D01*
X174062295Y-93117618D02*
X174100390Y-93003333D01*
X174100390Y-93003333D02*
X174138485Y-92965237D01*
X174862295Y-92241428D02*
X174862295Y-92622380D01*
X174862295Y-92622380D02*
X174062295Y-92622380D01*
X174824200Y-96781428D02*
X174862295Y-96667142D01*
X174862295Y-96667142D02*
X174862295Y-96476666D01*
X174862295Y-96476666D02*
X174824200Y-96400475D01*
X174824200Y-96400475D02*
X174786104Y-96362380D01*
X174786104Y-96362380D02*
X174709914Y-96324285D01*
X174709914Y-96324285D02*
X174633723Y-96324285D01*
X174633723Y-96324285D02*
X174557533Y-96362380D01*
X174557533Y-96362380D02*
X174519438Y-96400475D01*
X174519438Y-96400475D02*
X174481342Y-96476666D01*
X174481342Y-96476666D02*
X174443247Y-96629047D01*
X174443247Y-96629047D02*
X174405152Y-96705237D01*
X174405152Y-96705237D02*
X174367057Y-96743332D01*
X174367057Y-96743332D02*
X174290866Y-96781428D01*
X174290866Y-96781428D02*
X174214676Y-96781428D01*
X174214676Y-96781428D02*
X174138485Y-96743332D01*
X174138485Y-96743332D02*
X174100390Y-96705237D01*
X174100390Y-96705237D02*
X174062295Y-96629047D01*
X174062295Y-96629047D02*
X174062295Y-96438570D01*
X174062295Y-96438570D02*
X174100390Y-96324285D01*
X174862295Y-95981427D02*
X174062295Y-95981427D01*
X174062295Y-95981427D02*
X174062295Y-95790951D01*
X174062295Y-95790951D02*
X174100390Y-95676665D01*
X174100390Y-95676665D02*
X174176580Y-95600475D01*
X174176580Y-95600475D02*
X174252771Y-95562380D01*
X174252771Y-95562380D02*
X174405152Y-95524284D01*
X174405152Y-95524284D02*
X174519438Y-95524284D01*
X174519438Y-95524284D02*
X174671819Y-95562380D01*
X174671819Y-95562380D02*
X174748009Y-95600475D01*
X174748009Y-95600475D02*
X174824200Y-95676665D01*
X174824200Y-95676665D02*
X174862295Y-95790951D01*
X174862295Y-95790951D02*
X174862295Y-95981427D01*
X174633723Y-95219523D02*
X174633723Y-94838570D01*
X174862295Y-95295713D02*
X174062295Y-95029046D01*
X174062295Y-95029046D02*
X174862295Y-94762380D01*
X175826667Y-108533200D02*
X175969524Y-108580819D01*
X175969524Y-108580819D02*
X176207619Y-108580819D01*
X176207619Y-108580819D02*
X176302857Y-108533200D01*
X176302857Y-108533200D02*
X176350476Y-108485580D01*
X176350476Y-108485580D02*
X176398095Y-108390342D01*
X176398095Y-108390342D02*
X176398095Y-108295104D01*
X176398095Y-108295104D02*
X176350476Y-108199866D01*
X176350476Y-108199866D02*
X176302857Y-108152247D01*
X176302857Y-108152247D02*
X176207619Y-108104628D01*
X176207619Y-108104628D02*
X176017143Y-108057009D01*
X176017143Y-108057009D02*
X175921905Y-108009390D01*
X175921905Y-108009390D02*
X175874286Y-107961771D01*
X175874286Y-107961771D02*
X175826667Y-107866533D01*
X175826667Y-107866533D02*
X175826667Y-107771295D01*
X175826667Y-107771295D02*
X175874286Y-107676057D01*
X175874286Y-107676057D02*
X175921905Y-107628438D01*
X175921905Y-107628438D02*
X176017143Y-107580819D01*
X176017143Y-107580819D02*
X176255238Y-107580819D01*
X176255238Y-107580819D02*
X176398095Y-107628438D01*
X176731429Y-107580819D02*
X176969524Y-108580819D01*
X176969524Y-108580819D02*
X177160000Y-107866533D01*
X177160000Y-107866533D02*
X177350476Y-108580819D01*
X177350476Y-108580819D02*
X177588572Y-107580819D01*
X177874286Y-107580819D02*
X178493333Y-107580819D01*
X178493333Y-107580819D02*
X178160000Y-107961771D01*
X178160000Y-107961771D02*
X178302857Y-107961771D01*
X178302857Y-107961771D02*
X178398095Y-108009390D01*
X178398095Y-108009390D02*
X178445714Y-108057009D01*
X178445714Y-108057009D02*
X178493333Y-108152247D01*
X178493333Y-108152247D02*
X178493333Y-108390342D01*
X178493333Y-108390342D02*
X178445714Y-108485580D01*
X178445714Y-108485580D02*
X178398095Y-108533200D01*
X178398095Y-108533200D02*
X178302857Y-108580819D01*
X178302857Y-108580819D02*
X178017143Y-108580819D01*
X178017143Y-108580819D02*
X177921905Y-108533200D01*
X177921905Y-108533200D02*
X177874286Y-108485580D01*
X105918095Y-81734819D02*
X105918095Y-80734819D01*
X105918095Y-81211009D02*
X106489523Y-81211009D01*
X106489523Y-81734819D02*
X106489523Y-80734819D01*
X107489523Y-81734819D02*
X106918095Y-81734819D01*
X107203809Y-81734819D02*
X107203809Y-80734819D01*
X107203809Y-80734819D02*
X107108571Y-80877676D01*
X107108571Y-80877676D02*
X107013333Y-80972914D01*
X107013333Y-80972914D02*
X106918095Y-81020533D01*
X156776667Y-108533200D02*
X156919524Y-108580819D01*
X156919524Y-108580819D02*
X157157619Y-108580819D01*
X157157619Y-108580819D02*
X157252857Y-108533200D01*
X157252857Y-108533200D02*
X157300476Y-108485580D01*
X157300476Y-108485580D02*
X157348095Y-108390342D01*
X157348095Y-108390342D02*
X157348095Y-108295104D01*
X157348095Y-108295104D02*
X157300476Y-108199866D01*
X157300476Y-108199866D02*
X157252857Y-108152247D01*
X157252857Y-108152247D02*
X157157619Y-108104628D01*
X157157619Y-108104628D02*
X156967143Y-108057009D01*
X156967143Y-108057009D02*
X156871905Y-108009390D01*
X156871905Y-108009390D02*
X156824286Y-107961771D01*
X156824286Y-107961771D02*
X156776667Y-107866533D01*
X156776667Y-107866533D02*
X156776667Y-107771295D01*
X156776667Y-107771295D02*
X156824286Y-107676057D01*
X156824286Y-107676057D02*
X156871905Y-107628438D01*
X156871905Y-107628438D02*
X156967143Y-107580819D01*
X156967143Y-107580819D02*
X157205238Y-107580819D01*
X157205238Y-107580819D02*
X157348095Y-107628438D01*
X157681429Y-107580819D02*
X157919524Y-108580819D01*
X157919524Y-108580819D02*
X158110000Y-107866533D01*
X158110000Y-107866533D02*
X158300476Y-108580819D01*
X158300476Y-108580819D02*
X158538572Y-107580819D01*
X158871905Y-107676057D02*
X158919524Y-107628438D01*
X158919524Y-107628438D02*
X159014762Y-107580819D01*
X159014762Y-107580819D02*
X159252857Y-107580819D01*
X159252857Y-107580819D02*
X159348095Y-107628438D01*
X159348095Y-107628438D02*
X159395714Y-107676057D01*
X159395714Y-107676057D02*
X159443333Y-107771295D01*
X159443333Y-107771295D02*
X159443333Y-107866533D01*
X159443333Y-107866533D02*
X159395714Y-108009390D01*
X159395714Y-108009390D02*
X158824286Y-108580819D01*
X158824286Y-108580819D02*
X159443333Y-108580819D01*
X137726667Y-108533200D02*
X137869524Y-108580819D01*
X137869524Y-108580819D02*
X138107619Y-108580819D01*
X138107619Y-108580819D02*
X138202857Y-108533200D01*
X138202857Y-108533200D02*
X138250476Y-108485580D01*
X138250476Y-108485580D02*
X138298095Y-108390342D01*
X138298095Y-108390342D02*
X138298095Y-108295104D01*
X138298095Y-108295104D02*
X138250476Y-108199866D01*
X138250476Y-108199866D02*
X138202857Y-108152247D01*
X138202857Y-108152247D02*
X138107619Y-108104628D01*
X138107619Y-108104628D02*
X137917143Y-108057009D01*
X137917143Y-108057009D02*
X137821905Y-108009390D01*
X137821905Y-108009390D02*
X137774286Y-107961771D01*
X137774286Y-107961771D02*
X137726667Y-107866533D01*
X137726667Y-107866533D02*
X137726667Y-107771295D01*
X137726667Y-107771295D02*
X137774286Y-107676057D01*
X137774286Y-107676057D02*
X137821905Y-107628438D01*
X137821905Y-107628438D02*
X137917143Y-107580819D01*
X137917143Y-107580819D02*
X138155238Y-107580819D01*
X138155238Y-107580819D02*
X138298095Y-107628438D01*
X138631429Y-107580819D02*
X138869524Y-108580819D01*
X138869524Y-108580819D02*
X139060000Y-107866533D01*
X139060000Y-107866533D02*
X139250476Y-108580819D01*
X139250476Y-108580819D02*
X139488572Y-107580819D01*
X140393333Y-108580819D02*
X139821905Y-108580819D01*
X140107619Y-108580819D02*
X140107619Y-107580819D01*
X140107619Y-107580819D02*
X140012381Y-107723676D01*
X140012381Y-107723676D02*
X139917143Y-107818914D01*
X139917143Y-107818914D02*
X139821905Y-107866533D01*
X184298095Y-98304819D02*
X184298095Y-97304819D01*
X184298095Y-97781009D02*
X184869523Y-97781009D01*
X184869523Y-98304819D02*
X184869523Y-97304819D01*
X185774285Y-97638152D02*
X185774285Y-98304819D01*
X185536190Y-97257200D02*
X185298095Y-97971485D01*
X185298095Y-97971485D02*
X185917142Y-97971485D01*
X179578095Y-83004819D02*
X179578095Y-82004819D01*
X179578095Y-82481009D02*
X180149523Y-82481009D01*
X180149523Y-83004819D02*
X180149523Y-82004819D01*
X180578095Y-82100057D02*
X180625714Y-82052438D01*
X180625714Y-82052438D02*
X180720952Y-82004819D01*
X180720952Y-82004819D02*
X180959047Y-82004819D01*
X180959047Y-82004819D02*
X181054285Y-82052438D01*
X181054285Y-82052438D02*
X181101904Y-82100057D01*
X181101904Y-82100057D02*
X181149523Y-82195295D01*
X181149523Y-82195295D02*
X181149523Y-82290533D01*
X181149523Y-82290533D02*
X181101904Y-82433390D01*
X181101904Y-82433390D02*
X180530476Y-83004819D01*
X180530476Y-83004819D02*
X181149523Y-83004819D01*
%TO.C,U1*%
D11*
X110075000Y-102414000D02*
X124045000Y-102414000D01*
D12*
X124045000Y-81459000D02*
X110075000Y-81459000D01*
D11*
X124045000Y-81459000D02*
X110075000Y-81459000D01*
X108170000Y-83364000D02*
G75*
G02*
X110075000Y-81459000I1905000J0D01*
G01*
X110075000Y-102414000D02*
G75*
G02*
X108170000Y-100509000I1J1905001D01*
G01*
X124045000Y-81459000D02*
G75*
G02*
X125950000Y-83364000I0J-1905000D01*
G01*
X125950000Y-100509000D02*
G75*
G02*
X124045000Y-102414000I-1905001J1D01*
G01*
D13*
X108362000Y-81700000D02*
G75*
G02*
X107858000Y-81700000I-252000J0D01*
G01*
X107858000Y-81700000D02*
G75*
G02*
X108362000Y-81700000I252000J0D01*
G01*
X109505000Y-82580000D02*
G75*
G02*
X109001000Y-82580000I-252000J0D01*
G01*
X109001000Y-82580000D02*
G75*
G02*
X109505000Y-82580000I252000J0D01*
G01*
%TO.C,J1*%
D14*
X140000000Y-86000000D02*
X140000000Y-98000000D01*
X140000000Y-98000000D02*
X178000000Y-98000000D01*
X143500000Y-86000000D02*
X143500000Y-98000000D01*
X173000000Y-86000000D02*
X173000000Y-98000000D01*
X178000000Y-86000000D02*
X140000000Y-86000000D01*
X178000000Y-98000000D02*
X178000000Y-86000000D01*
%TO.C,SW3*%
X170175000Y-109015000D02*
X184145000Y-109015000D01*
X170175000Y-122985000D02*
X170175000Y-109015000D01*
X184145000Y-109015000D02*
X184145000Y-122985000D01*
X184145000Y-122985000D02*
X170175000Y-122985000D01*
%TO.C,SW2*%
X151125000Y-109015000D02*
X165095000Y-109015000D01*
X151125000Y-122985000D02*
X151125000Y-109015000D01*
X165095000Y-109015000D02*
X165095000Y-122985000D01*
X165095000Y-122985000D02*
X151125000Y-122985000D01*
%TO.C,SW1*%
X132075000Y-109015000D02*
X146045000Y-109015000D01*
X132075000Y-122985000D02*
X132075000Y-109015000D01*
X146045000Y-109015000D02*
X146045000Y-122985000D01*
X146045000Y-122985000D02*
X132075000Y-122985000D01*
D15*
%TO.C,LainArt*%
G36*
X115617243Y-116523194D02*
G01*
X115589453Y-116550984D01*
X115561663Y-116523194D01*
X115589453Y-116495404D01*
X115617243Y-116523194D01*
G37*
G36*
X115950722Y-121414223D02*
G01*
X115922932Y-121442013D01*
X115895142Y-121414223D01*
X115922932Y-121386433D01*
X115950722Y-121414223D01*
G37*
G36*
X115543136Y-115624653D02*
G01*
X115549788Y-115690613D01*
X115543136Y-115698760D01*
X115510094Y-115691130D01*
X115506083Y-115661706D01*
X115526419Y-115615958D01*
X115543136Y-115624653D01*
G37*
G36*
X115544225Y-121922553D02*
G01*
X115533873Y-121942231D01*
X115481505Y-121995310D01*
X115471733Y-121997811D01*
X115467941Y-121961910D01*
X115478293Y-121942231D01*
X115530661Y-121889153D01*
X115540433Y-121886652D01*
X115544225Y-121922553D01*
G37*
G36*
X114686547Y-115153918D02*
G01*
X114755488Y-115273732D01*
X114810889Y-115398361D01*
X114830121Y-115482493D01*
X114828605Y-115488542D01*
X114797311Y-115468759D01*
X114736685Y-115372101D01*
X114695774Y-115292832D01*
X114637931Y-115161876D01*
X114617765Y-115089405D01*
X114626694Y-115084229D01*
X114686547Y-115153918D01*
G37*
G36*
X115620919Y-121727486D02*
G01*
X115667565Y-121789387D01*
X115713787Y-121865054D01*
X115710698Y-121886652D01*
X115656524Y-121847275D01*
X115644472Y-121830165D01*
X115578262Y-121797848D01*
X115558459Y-121805262D01*
X115531149Y-121792381D01*
X115541376Y-121748192D01*
X115574451Y-121680636D01*
X115584256Y-121675830D01*
X115620919Y-121727486D01*
G37*
G36*
X115336051Y-117107555D02*
G01*
X115436770Y-117147759D01*
X115658733Y-117239962D01*
X115895521Y-117331311D01*
X115964617Y-117356310D01*
X116115191Y-117413606D01*
X116210783Y-117457996D01*
X116228621Y-117472649D01*
X116221401Y-117486468D01*
X116187710Y-117485754D01*
X116109504Y-117465545D01*
X115968737Y-117420878D01*
X115747364Y-117346789D01*
X115645033Y-117312153D01*
X115397116Y-117227711D01*
X115237633Y-117170844D01*
X115149715Y-117133518D01*
X115116494Y-117107700D01*
X115121102Y-117085355D01*
X115135712Y-117069568D01*
X115203306Y-117068885D01*
X115336051Y-117107555D01*
G37*
G36*
X119598429Y-114745851D02*
G01*
X119613119Y-114836200D01*
X119652604Y-114872398D01*
X119697261Y-114931729D01*
X119636376Y-115002385D01*
X119468116Y-115085906D01*
X119343203Y-115132954D01*
X119070410Y-115198961D01*
X118783917Y-115200682D01*
X118447927Y-115137786D01*
X118396236Y-115124167D01*
X118195560Y-115052234D01*
X118027597Y-114960640D01*
X117920217Y-114866892D01*
X117896017Y-114810008D01*
X117943749Y-114813787D01*
X118067765Y-114846491D01*
X118209915Y-114890916D01*
X118534881Y-114978661D01*
X118803719Y-115000321D01*
X119050856Y-114954281D01*
X119309874Y-114839387D01*
X119483703Y-114753464D01*
X119581739Y-114723751D01*
X119598429Y-114745851D01*
G37*
G36*
X114668815Y-115536151D02*
G01*
X114649577Y-115645615D01*
X114614850Y-115720940D01*
X114590208Y-115809070D01*
X114634018Y-115822383D01*
X114716849Y-115761750D01*
X114773474Y-115729532D01*
X114783545Y-115753136D01*
X114746069Y-115831390D01*
X114678229Y-115906527D01*
X114584756Y-116033797D01*
X114547856Y-116132912D01*
X114540902Y-116284231D01*
X114556485Y-116498187D01*
X114588638Y-116731939D01*
X114631399Y-116942646D01*
X114678802Y-117087467D01*
X114681496Y-117092804D01*
X114721326Y-117205476D01*
X114702850Y-117251776D01*
X114637930Y-117213757D01*
X114617006Y-117190395D01*
X114549940Y-117058199D01*
X114500352Y-116859386D01*
X114468166Y-116616507D01*
X114453306Y-116352111D01*
X114455695Y-116088749D01*
X114475258Y-115848971D01*
X114511917Y-115655327D01*
X114565597Y-115530367D01*
X114622752Y-115494967D01*
X114668815Y-115536151D01*
G37*
G36*
X113246731Y-113797911D02*
G01*
X113361056Y-114016925D01*
X113552470Y-114200865D01*
X113708978Y-114308164D01*
X113848620Y-114362983D01*
X114023717Y-114382023D01*
X114124187Y-114383369D01*
X114313977Y-114391658D01*
X114413013Y-114415068D01*
X114422276Y-114438949D01*
X114349322Y-114469586D01*
X114200084Y-114485493D01*
X114008433Y-114486836D01*
X113808241Y-114473782D01*
X113633381Y-114446496D01*
X113588578Y-114434867D01*
X113446238Y-114374032D01*
X113338172Y-114306454D01*
X113468514Y-114306454D01*
X113477418Y-114327789D01*
X113551045Y-114381294D01*
X113567348Y-114383369D01*
X113597481Y-114349125D01*
X113588578Y-114327789D01*
X113514950Y-114274285D01*
X113498647Y-114272210D01*
X113468514Y-114306454D01*
X113338172Y-114306454D01*
X113304200Y-114285210D01*
X113189232Y-114189636D01*
X113128101Y-114108545D01*
X113131322Y-114072120D01*
X113189670Y-114079144D01*
X113259528Y-114150508D01*
X113343589Y-114241550D01*
X113404779Y-114272210D01*
X113409452Y-114238897D01*
X113347211Y-114155929D01*
X113318257Y-114125681D01*
X113203794Y-113961690D01*
X113176000Y-113778307D01*
X113180271Y-113577461D01*
X113246731Y-113797911D01*
G37*
G36*
X115482391Y-115786228D02*
G01*
X115480710Y-115851451D01*
X115435179Y-115970320D01*
X115423948Y-115992798D01*
X115377204Y-116130268D01*
X115367928Y-116263194D01*
X115394591Y-116355170D01*
X115439995Y-116374949D01*
X115513975Y-116379805D01*
X115653954Y-116400384D01*
X115714508Y-116410972D01*
X115867040Y-116451808D01*
X115942624Y-116497287D01*
X115931821Y-116534603D01*
X115825189Y-116550947D01*
X115817719Y-116550984D01*
X115702455Y-116582028D01*
X115652723Y-116634354D01*
X115584576Y-116712407D01*
X115496178Y-116688719D01*
X115487556Y-116680671D01*
X115451719Y-116602165D01*
X115491780Y-116552946D01*
X115509363Y-116550984D01*
X115540682Y-116587539D01*
X115529324Y-116620459D01*
X115532612Y-116640967D01*
X115592210Y-116593992D01*
X115660947Y-116501924D01*
X115641912Y-116458088D01*
X115552877Y-116475825D01*
X115485125Y-116513607D01*
X115374993Y-116568212D01*
X115309463Y-116546715D01*
X115299862Y-116535031D01*
X115269792Y-116455756D01*
X115292723Y-116455756D01*
X115306246Y-116486817D01*
X115362209Y-116546484D01*
X115394382Y-116534244D01*
X115394923Y-116526474D01*
X115355446Y-116479464D01*
X115330756Y-116462307D01*
X115292723Y-116455756D01*
X115269792Y-116455756D01*
X115249400Y-116401994D01*
X115236571Y-116228042D01*
X115262096Y-116069827D01*
X115293176Y-116009507D01*
X115338725Y-115946449D01*
X115308739Y-115953774D01*
X115289071Y-115965314D01*
X115237644Y-115983016D01*
X115250666Y-115948193D01*
X115336547Y-115888988D01*
X115370414Y-115884026D01*
X115442165Y-115847905D01*
X115450503Y-115819183D01*
X115470226Y-115778994D01*
X115482391Y-115786228D01*
G37*
G36*
X117474434Y-104186006D02*
G01*
X117676600Y-104201415D01*
X117936388Y-104229788D01*
X118275646Y-104271833D01*
X118441060Y-104292968D01*
X118934858Y-104359582D01*
X119339814Y-104424709D01*
X119677866Y-104496061D01*
X119970951Y-104581349D01*
X120241005Y-104688281D01*
X120509966Y-104824571D01*
X120799771Y-104997927D01*
X121132358Y-105216060D01*
X121203020Y-105263762D01*
X121422062Y-105411332D01*
X121679203Y-105583493D01*
X121919751Y-105743629D01*
X121925558Y-105747479D01*
X122270433Y-105986182D01*
X122556215Y-106211566D01*
X122799883Y-106443447D01*
X123018412Y-106701643D01*
X123228780Y-107005971D01*
X123447962Y-107376248D01*
X123663797Y-107776544D01*
X123854012Y-108175412D01*
X124037868Y-108637011D01*
X124219896Y-109174388D01*
X124404626Y-109800593D01*
X124533126Y-110280053D01*
X124612420Y-110603435D01*
X124672006Y-110895339D01*
X124716893Y-111189745D01*
X124752089Y-111520632D01*
X124782605Y-111921981D01*
X124788511Y-112012511D01*
X124813749Y-112353809D01*
X124843748Y-112675185D01*
X124875787Y-112952462D01*
X124907142Y-113161460D01*
X124929050Y-113260465D01*
X124969553Y-113419682D01*
X124981847Y-113520257D01*
X124967911Y-113547491D01*
X124929722Y-113486683D01*
X124906281Y-113429660D01*
X124857563Y-113313572D01*
X124777263Y-113134114D01*
X124681898Y-112928130D01*
X124672333Y-112907838D01*
X124489874Y-112521444D01*
X124445152Y-113132822D01*
X124433586Y-113406069D01*
X124432146Y-113741994D01*
X124439641Y-114113155D01*
X124454876Y-114492111D01*
X124476660Y-114851420D01*
X124503799Y-115163640D01*
X124535101Y-115401331D01*
X124546269Y-115459323D01*
X124563161Y-115566883D01*
X124533783Y-115587950D01*
X124466218Y-115556849D01*
X124373890Y-115477616D01*
X124255926Y-115337548D01*
X124171362Y-115217387D01*
X124073192Y-115073554D01*
X124000049Y-114980605D01*
X123971294Y-114959150D01*
X123956478Y-115022226D01*
X123945139Y-115152791D01*
X123943653Y-115185875D01*
X123932918Y-115320525D01*
X123892521Y-115371757D01*
X123789244Y-115367257D01*
X123736625Y-115358420D01*
X123615690Y-115343149D01*
X123591752Y-115358463D01*
X123620744Y-115384150D01*
X123746730Y-115461695D01*
X123938259Y-115564742D01*
X124165819Y-115679070D01*
X124399898Y-115790453D01*
X124610985Y-115884669D01*
X124769568Y-115947495D01*
X124822185Y-115963191D01*
X125003887Y-116057127D01*
X125167674Y-116234186D01*
X125315193Y-116422602D01*
X125483501Y-116621792D01*
X125544688Y-116689934D01*
X125666093Y-116836971D01*
X125770555Y-117001594D01*
X125860553Y-117194852D01*
X125938567Y-117427793D01*
X126007079Y-117711466D01*
X126068569Y-118056920D01*
X126125516Y-118475203D01*
X126180401Y-118977365D01*
X126235705Y-119574455D01*
X126262113Y-119885776D01*
X126292532Y-120222580D01*
X126324905Y-120529854D01*
X126356684Y-120786862D01*
X126385323Y-120972866D01*
X126406758Y-121063580D01*
X126437354Y-121235086D01*
X126401175Y-121409868D01*
X126367249Y-121553215D01*
X126367131Y-121653471D01*
X126371484Y-121663582D01*
X126393484Y-121751396D01*
X126405682Y-121901624D01*
X126406563Y-121956463D01*
X126422416Y-122130022D01*
X126464158Y-122359883D01*
X126522815Y-122596797D01*
X126523922Y-122600654D01*
X126641432Y-123008967D01*
X126488660Y-123462142D01*
X126401847Y-123761227D01*
X126357201Y-124010524D01*
X126353918Y-124137636D01*
X126371947Y-124359956D01*
X120800066Y-124374118D01*
X119780845Y-124376244D01*
X118870633Y-124377148D01*
X118067283Y-124376814D01*
X117368651Y-124375224D01*
X116772591Y-124372361D01*
X116276959Y-124368209D01*
X115879609Y-124362750D01*
X115578396Y-124355968D01*
X115371175Y-124347845D01*
X115255800Y-124338364D01*
X115228184Y-124329907D01*
X115247317Y-124260804D01*
X115300265Y-124106684D01*
X115380348Y-123886050D01*
X115480887Y-123617405D01*
X115561663Y-123406015D01*
X115672344Y-123117343D01*
X115767491Y-122866500D01*
X115840500Y-122671112D01*
X115884769Y-122548810D01*
X115895142Y-122515777D01*
X115847512Y-122477734D01*
X115723027Y-122413469D01*
X115549293Y-122334765D01*
X115492923Y-122311290D01*
X115851938Y-122311290D01*
X115867274Y-122321944D01*
X115933675Y-122325750D01*
X116056710Y-122286804D01*
X116142100Y-122207764D01*
X116206237Y-122095868D01*
X116226652Y-122027129D01*
X116203328Y-122026896D01*
X116149752Y-122105422D01*
X116147962Y-122108641D01*
X116045668Y-122225499D01*
X115941507Y-122283735D01*
X115851938Y-122311290D01*
X115492923Y-122311290D01*
X115353917Y-122253401D01*
X115164506Y-122181159D01*
X115008667Y-122129818D01*
X114963063Y-122118030D01*
X114782965Y-122096540D01*
X114659120Y-122133958D01*
X114641553Y-122145858D01*
X114431839Y-122247296D01*
X114163323Y-122304582D01*
X113882707Y-122308571D01*
X113837431Y-122303328D01*
X113670297Y-122269309D01*
X113553280Y-122205222D01*
X113442152Y-122082638D01*
X113395452Y-122019246D01*
X113375750Y-121984008D01*
X115178651Y-121984008D01*
X115195996Y-122029735D01*
X115285921Y-122080943D01*
X115464320Y-122151205D01*
X115486248Y-122159290D01*
X115664735Y-122219902D01*
X115773233Y-122231061D01*
X115845013Y-122184464D01*
X115913349Y-122071808D01*
X115924755Y-122049867D01*
X115968060Y-121937744D01*
X115956898Y-121887209D01*
X115952149Y-121886652D01*
X115901898Y-121932689D01*
X115891236Y-121983916D01*
X115881922Y-122043886D01*
X115852223Y-122005793D01*
X115834802Y-121970021D01*
X115802540Y-121913231D01*
X115800533Y-121952652D01*
X115812606Y-122025601D01*
X115825137Y-122128542D01*
X115804591Y-122132938D01*
X115786522Y-122108971D01*
X115741060Y-122053678D01*
X115728820Y-122094142D01*
X115728402Y-122108971D01*
X115711403Y-122156094D01*
X115685867Y-122130738D01*
X115602217Y-122084607D01*
X115550196Y-122083779D01*
X115450876Y-122067661D01*
X115380736Y-122009135D01*
X115379402Y-122000750D01*
X115422205Y-122000750D01*
X115508476Y-122033906D01*
X115537933Y-122034865D01*
X115601607Y-121997119D01*
X115598696Y-121932891D01*
X115597783Y-121863575D01*
X115622426Y-121862065D01*
X115668515Y-121938543D01*
X115676346Y-121987197D01*
X115689721Y-122029571D01*
X115725542Y-121967015D01*
X115731455Y-121952556D01*
X115796070Y-121863183D01*
X115852987Y-121864202D01*
X115891655Y-121875618D01*
X115876615Y-121853878D01*
X115797897Y-121805483D01*
X115781743Y-121803282D01*
X115715110Y-121763151D01*
X115651970Y-121692209D01*
X115572860Y-121615192D01*
X115520192Y-121644052D01*
X115491837Y-121751077D01*
X115458644Y-121873662D01*
X115436511Y-121920584D01*
X115422205Y-122000750D01*
X115379402Y-122000750D01*
X115369904Y-121941056D01*
X115394923Y-121914442D01*
X115422650Y-121853824D01*
X115383727Y-121787665D01*
X115342592Y-121727590D01*
X115378482Y-121738793D01*
X115381028Y-121740313D01*
X115437587Y-121737654D01*
X115450503Y-121667612D01*
X115471342Y-121575502D01*
X115501537Y-121553172D01*
X115638594Y-121587380D01*
X115720736Y-121671412D01*
X115729254Y-121711963D01*
X115738082Y-121772420D01*
X115776328Y-121731626D01*
X115783982Y-121719912D01*
X115827997Y-121671946D01*
X115838711Y-121709297D01*
X115873417Y-121752761D01*
X115903730Y-121742395D01*
X115941398Y-121735451D01*
X115924559Y-121772859D01*
X115917001Y-121819180D01*
X115993485Y-121807350D01*
X116131212Y-121817802D01*
X116203907Y-121869878D01*
X116271331Y-121926982D01*
X116279003Y-121898931D01*
X116274967Y-121885659D01*
X116209802Y-121814828D01*
X116073053Y-121724541D01*
X115898142Y-121631818D01*
X115781213Y-121580962D01*
X116117462Y-121580962D01*
X116145252Y-121608752D01*
X116173041Y-121580962D01*
X116145252Y-121553172D01*
X116117462Y-121580962D01*
X115781213Y-121580962D01*
X115718490Y-121553682D01*
X115567516Y-121507157D01*
X115519978Y-121501115D01*
X115417110Y-121530560D01*
X115394923Y-121584242D01*
X115367979Y-121641771D01*
X115339343Y-121636542D01*
X115297267Y-121655312D01*
X115283764Y-121733306D01*
X115257410Y-121864445D01*
X115217994Y-121930189D01*
X115178651Y-121984008D01*
X113375750Y-121984008D01*
X113258005Y-121773419D01*
X113179676Y-121519890D01*
X113178027Y-121509481D01*
X113140462Y-121260272D01*
X115506794Y-121260272D01*
X115556325Y-121320928D01*
X115680257Y-121399523D01*
X115763258Y-121439412D01*
X115936169Y-121514124D01*
X116026638Y-121546026D01*
X116053067Y-121539071D01*
X116034092Y-121497593D01*
X116025596Y-121446807D01*
X116102086Y-121463206D01*
X116178252Y-121500381D01*
X116251140Y-121565918D01*
X116254688Y-121611541D01*
X116259888Y-121660801D01*
X116277641Y-121664332D01*
X116356015Y-121623710D01*
X116368329Y-121607526D01*
X116340402Y-121558739D01*
X116234486Y-121485994D01*
X116077210Y-121402901D01*
X115895203Y-121323071D01*
X115715094Y-121260114D01*
X115658928Y-121244947D01*
X115538663Y-121230597D01*
X115506794Y-121260272D01*
X113140462Y-121260272D01*
X113138534Y-121247483D01*
X113104985Y-121482618D01*
X113058558Y-121661616D01*
X112963667Y-121916816D01*
X112829287Y-122229254D01*
X112664398Y-122579963D01*
X112477977Y-122949980D01*
X112279002Y-123320339D01*
X112076451Y-123672075D01*
X112039721Y-123732905D01*
X111643282Y-124384191D01*
X109344130Y-124385969D01*
X108778009Y-124386181D01*
X108313279Y-124385586D01*
X107940172Y-124383772D01*
X107648921Y-124380329D01*
X107429757Y-124374843D01*
X107272914Y-124366906D01*
X107168623Y-124356104D01*
X107107116Y-124342027D01*
X107078626Y-124324264D01*
X107073384Y-124302404D01*
X107076211Y-124290481D01*
X107189042Y-123932713D01*
X107268828Y-123658171D01*
X107319215Y-123445151D01*
X107343848Y-123271949D01*
X107346371Y-123116860D01*
X107330430Y-122958181D01*
X107315656Y-122864700D01*
X107280005Y-122584422D01*
X107282428Y-122342598D01*
X107316130Y-122108971D01*
X107336973Y-121958831D01*
X107361985Y-121715901D01*
X107389684Y-121398409D01*
X107418586Y-121024581D01*
X107447208Y-120612643D01*
X107474068Y-120180823D01*
X107476678Y-120135886D01*
X107504098Y-119667818D01*
X107527349Y-119296985D01*
X107548144Y-119009618D01*
X107568195Y-118791948D01*
X107589213Y-118630205D01*
X107612913Y-118510622D01*
X107641005Y-118419428D01*
X107675202Y-118342854D01*
X107706841Y-118285070D01*
X107795695Y-118090455D01*
X107854860Y-117887509D01*
X107864285Y-117824585D01*
X107913752Y-117630651D01*
X108036513Y-117426165D01*
X108107562Y-117336745D01*
X108298928Y-117137774D01*
X108557599Y-116909244D01*
X108854843Y-116672929D01*
X109161927Y-116450604D01*
X109175659Y-116441715D01*
X110659167Y-116441715D01*
X110672452Y-116551018D01*
X110681176Y-116570682D01*
X110736448Y-116638159D01*
X110780700Y-116608335D01*
X110842608Y-116567791D01*
X110937812Y-116600826D01*
X111085222Y-116651394D01*
X111173729Y-116662144D01*
X111235639Y-116655993D01*
X111268882Y-116621806D01*
X111278488Y-116535981D01*
X111269489Y-116374915D01*
X111259620Y-116259190D01*
X111248857Y-116049678D01*
X111254009Y-115878687D01*
X111273913Y-115780967D01*
X111275738Y-115777906D01*
X111309773Y-115662270D01*
X111244526Y-115583707D01*
X111088204Y-115550979D01*
X111062677Y-115550547D01*
X110855234Y-115550547D01*
X110739712Y-116007374D01*
X110680918Y-116266933D01*
X110659167Y-116441715D01*
X109175659Y-116441715D01*
X109450121Y-116264044D01*
X109690692Y-116135024D01*
X109696852Y-116132279D01*
X110105391Y-115939338D01*
X110423845Y-115758315D01*
X110670427Y-115576069D01*
X110863350Y-115379462D01*
X110888067Y-115345177D01*
X111016239Y-115345177D01*
X111060429Y-115378367D01*
X111149010Y-115383807D01*
X111251524Y-115367283D01*
X111264457Y-115308270D01*
X111260169Y-115295891D01*
X111233214Y-115173293D01*
X111224103Y-115059677D01*
X111219536Y-114970674D01*
X111199538Y-114963706D01*
X111148639Y-115045345D01*
X111115273Y-115105908D01*
X111035424Y-115261803D01*
X111016239Y-115345177D01*
X110888067Y-115345177D01*
X110996686Y-115194511D01*
X111139984Y-114974950D01*
X111237582Y-114847718D01*
X111297616Y-114807887D01*
X111328217Y-114850532D01*
X111337520Y-114970726D01*
X111337593Y-114988019D01*
X111353764Y-115185788D01*
X111395927Y-115441182D01*
X111454560Y-115709344D01*
X111520139Y-115945422D01*
X111568359Y-116074899D01*
X111666322Y-116198913D01*
X111775547Y-116270804D01*
X111908860Y-116379629D01*
X112045243Y-116593384D01*
X112073205Y-116649724D01*
X112293403Y-117021677D01*
X112569193Y-117317464D01*
X112720769Y-117435761D01*
X112822267Y-117524208D01*
X112874483Y-117625634D01*
X112880822Y-117766044D01*
X112844686Y-117971447D01*
X112809646Y-118114892D01*
X112802158Y-118174093D01*
X112818800Y-118236131D01*
X112870608Y-118313587D01*
X112968619Y-118419039D01*
X113123869Y-118565066D01*
X113347395Y-118764245D01*
X113486023Y-118885786D01*
X113758086Y-119120467D01*
X114035899Y-119354530D01*
X114294250Y-119567103D01*
X114507925Y-119737315D01*
X114592599Y-119801849D01*
X114798747Y-119963171D01*
X114933973Y-120094535D01*
X115022407Y-120223618D01*
X115083441Y-120364872D01*
X115175530Y-120616609D01*
X115241044Y-120785351D01*
X115290265Y-120892974D01*
X115333477Y-120961354D01*
X115380964Y-121012365D01*
X115393046Y-121023464D01*
X115487891Y-121087865D01*
X115540812Y-121099279D01*
X115614877Y-121110461D01*
X115758532Y-121153517D01*
X115911122Y-121208119D01*
X116088055Y-121272808D01*
X116223823Y-121317277D01*
X116281691Y-121330853D01*
X116317611Y-121279623D01*
X116379516Y-121134721D01*
X116462755Y-120909332D01*
X116562679Y-120616638D01*
X116674637Y-120269824D01*
X116767179Y-119969146D01*
X117117899Y-119969146D01*
X117145689Y-119996936D01*
X117173479Y-119969146D01*
X117145689Y-119941356D01*
X117117899Y-119969146D01*
X116767179Y-119969146D01*
X116793979Y-119882072D01*
X116801214Y-119857986D01*
X116815588Y-119806657D01*
X117298476Y-119806657D01*
X117313317Y-119821453D01*
X117397353Y-119782127D01*
X117558517Y-119685235D01*
X117738973Y-119570001D01*
X117911600Y-119451979D01*
X118032341Y-119356888D01*
X118083674Y-119299167D01*
X118079655Y-119289294D01*
X118003499Y-119307424D01*
X117868257Y-119374083D01*
X117703673Y-119470978D01*
X117539494Y-119579813D01*
X117405463Y-119682294D01*
X117344899Y-119741187D01*
X117298476Y-119806657D01*
X116815588Y-119806657D01*
X116880978Y-119573148D01*
X116923770Y-119359338D01*
X116932933Y-119183994D01*
X116911812Y-119014555D01*
X116895438Y-118940328D01*
X116835318Y-118765056D01*
X116802694Y-118712898D01*
X118840875Y-118712898D01*
X118886781Y-118770937D01*
X118952094Y-118801988D01*
X119069441Y-118878811D01*
X119121622Y-118946239D01*
X119189900Y-119017245D01*
X119240283Y-119017892D01*
X119248844Y-118961223D01*
X119168020Y-118875805D01*
X118992058Y-118747885D01*
X118880762Y-118691982D01*
X118840898Y-118711467D01*
X118840875Y-118712898D01*
X116802694Y-118712898D01*
X116736128Y-118606473D01*
X116584828Y-118453545D01*
X116368379Y-118295240D01*
X116073742Y-118120523D01*
X115687878Y-117918363D01*
X115687347Y-117918095D01*
X115329759Y-117735118D01*
X115068258Y-117594413D01*
X114897554Y-117492654D01*
X114812359Y-117426514D01*
X114807382Y-117392668D01*
X114841904Y-117386450D01*
X114952080Y-117413858D01*
X114980853Y-117433429D01*
X115048299Y-117475802D01*
X115194598Y-117556522D01*
X115399047Y-117664483D01*
X115640947Y-117788577D01*
X115672823Y-117804688D01*
X115954722Y-117950323D01*
X116237056Y-118101999D01*
X116485276Y-118240835D01*
X116651476Y-118339530D01*
X116835196Y-118445291D01*
X116995218Y-118521352D01*
X117097938Y-118551814D01*
X117100275Y-118551859D01*
X117260852Y-118526136D01*
X117497478Y-118455035D01*
X117789310Y-118347664D01*
X118115505Y-118213131D01*
X118455220Y-118060540D01*
X118787612Y-117899000D01*
X119091839Y-117737616D01*
X119347057Y-117585496D01*
X119413927Y-117540980D01*
X119518964Y-117465270D01*
X119600768Y-117391030D01*
X119670741Y-117298784D01*
X119740286Y-117169057D01*
X119820805Y-116982375D01*
X119923701Y-116719262D01*
X119977286Y-116578774D01*
X120089461Y-116285846D01*
X120195343Y-116012894D01*
X120285127Y-115784940D01*
X120349013Y-115627007D01*
X120363732Y-115592231D01*
X120419118Y-115445798D01*
X120418538Y-115433265D01*
X120648781Y-115433265D01*
X120719815Y-115471924D01*
X120867901Y-115493476D01*
X120928400Y-115494967D01*
X121076576Y-115503357D01*
X121164909Y-115524555D01*
X121175712Y-115536652D01*
X121211027Y-115596135D01*
X121297722Y-115701469D01*
X121407836Y-115822389D01*
X121513408Y-115928635D01*
X121586478Y-115989943D01*
X121599364Y-115995186D01*
X121589296Y-115955798D01*
X121529274Y-115858023D01*
X121507304Y-115826473D01*
X121435189Y-115698124D01*
X121411800Y-115598566D01*
X121414477Y-115586602D01*
X121479747Y-115535770D01*
X121619849Y-115478695D01*
X121752404Y-115440926D01*
X121941098Y-115381991D01*
X122094483Y-115310060D01*
X122155750Y-115263948D01*
X122214092Y-115182874D01*
X122188501Y-115167288D01*
X122085837Y-115218547D01*
X122047918Y-115242630D01*
X121924121Y-115302435D01*
X121741443Y-115367537D01*
X121619129Y-115402754D01*
X121392729Y-115446736D01*
X121233658Y-115431228D01*
X121109373Y-115345547D01*
X121000375Y-115199625D01*
X120928487Y-115091005D01*
X120903293Y-115072201D01*
X120912806Y-115138619D01*
X120919327Y-115168565D01*
X120927715Y-115273753D01*
X120871056Y-115325584D01*
X120781835Y-115348547D01*
X120665790Y-115388479D01*
X120648781Y-115433265D01*
X120418538Y-115433265D01*
X120416686Y-115393254D01*
X120355433Y-115434325D01*
X120242615Y-115558887D01*
X120114098Y-115684517D01*
X119933841Y-115828615D01*
X119787669Y-115929385D01*
X119574217Y-116074948D01*
X119354906Y-116239878D01*
X119235239Y-116338567D01*
X119092536Y-116452657D01*
X118992310Y-116513445D01*
X118947816Y-116516596D01*
X118972311Y-116457775D01*
X119006500Y-116413378D01*
X119046914Y-116345374D01*
X119037286Y-116328665D01*
X119054173Y-116291198D01*
X119132593Y-116190873D01*
X119257924Y-116045805D01*
X119329932Y-115966165D01*
X119572675Y-115667278D01*
X119795719Y-115330270D01*
X119978171Y-114990441D01*
X120099137Y-114683092D01*
X120108224Y-114651196D01*
X120137269Y-114511645D01*
X120120398Y-114440964D01*
X120073052Y-114411801D01*
X119987585Y-114408463D01*
X119963837Y-114432646D01*
X119906945Y-114466378D01*
X119793998Y-114413551D01*
X119633194Y-114278313D01*
X119605605Y-114251328D01*
X119430900Y-114077680D01*
X119372102Y-114300000D01*
X119254762Y-114603759D01*
X119088992Y-114807953D01*
X118873347Y-114913759D01*
X118607393Y-114922488D01*
X118328482Y-114835966D01*
X118163684Y-114703069D01*
X118259272Y-114703069D01*
X118311990Y-114749026D01*
X118396236Y-114792231D01*
X118606862Y-114852109D01*
X118825656Y-114851468D01*
X119006556Y-114792059D01*
X119041049Y-114767744D01*
X119088163Y-114685093D01*
X119042908Y-114612771D01*
X118923945Y-114566445D01*
X118791726Y-114558448D01*
X118628493Y-114553642D01*
X118501123Y-114528603D01*
X118493501Y-114525505D01*
X118413694Y-114515587D01*
X118396236Y-114567877D01*
X118350075Y-114651426D01*
X118298971Y-114676522D01*
X118259272Y-114703069D01*
X118163684Y-114703069D01*
X118119570Y-114667494D01*
X117990740Y-114428752D01*
X117951597Y-114162835D01*
X117925109Y-114031684D01*
X117851764Y-113998582D01*
X117740742Y-114065578D01*
X117700299Y-114106783D01*
X117600075Y-114180221D01*
X117542933Y-114163676D01*
X117529565Y-114080484D01*
X117580525Y-114005142D01*
X117662175Y-113894408D01*
X117652564Y-113838454D01*
X117590328Y-113827571D01*
X117515119Y-113800446D01*
X117534151Y-113724641D01*
X117617555Y-113633551D01*
X117741734Y-113566675D01*
X117924101Y-113517804D01*
X118001861Y-113507162D01*
X118192138Y-113471019D01*
X118197732Y-113466855D01*
X118365110Y-113466855D01*
X118411619Y-113490424D01*
X118514485Y-113494693D01*
X118857598Y-113542468D01*
X119217264Y-113673035D01*
X119559127Y-113870365D01*
X119846670Y-114116139D01*
X120000282Y-114262715D01*
X120104234Y-114318682D01*
X120169350Y-114286691D01*
X120200068Y-114202735D01*
X120220658Y-114066859D01*
X120237192Y-113910940D01*
X123176105Y-113910940D01*
X123203895Y-113938730D01*
X123231685Y-113910940D01*
X123203895Y-113883151D01*
X123176105Y-113910940D01*
X120237192Y-113910940D01*
X120244062Y-113846157D01*
X120268404Y-113566863D01*
X120291811Y-113255210D01*
X120294340Y-113216192D01*
X124009803Y-113216192D01*
X124030139Y-113261941D01*
X124046856Y-113253245D01*
X124053508Y-113187285D01*
X124046856Y-113179139D01*
X124013814Y-113186768D01*
X124009803Y-113216192D01*
X120294340Y-113216192D01*
X120312407Y-112937434D01*
X120328317Y-112639768D01*
X120337667Y-112388446D01*
X120339306Y-112254412D01*
X120337244Y-112049589D01*
X120330325Y-111941998D01*
X120313142Y-111917715D01*
X120280288Y-111962813D01*
X120248769Y-112021225D01*
X120052747Y-112318426D01*
X119796197Y-112606295D01*
X119522547Y-112836129D01*
X119521386Y-112836929D01*
X119264068Y-113013968D01*
X119571826Y-113101185D01*
X119776470Y-113174263D01*
X119962196Y-113265460D01*
X120041083Y-113317994D01*
X120128410Y-113396226D01*
X120121923Y-113415644D01*
X120091422Y-113406417D01*
X119984837Y-113372592D01*
X119806796Y-113321555D01*
X119593532Y-113263653D01*
X119567213Y-113256714D01*
X119357791Y-113203283D01*
X119229079Y-113178694D01*
X119154521Y-113182627D01*
X119107562Y-113214761D01*
X119079103Y-113250832D01*
X119019920Y-113319520D01*
X118988902Y-113289897D01*
X118971739Y-113229959D01*
X118939437Y-113106434D01*
X118784311Y-113216893D01*
X118654905Y-113292929D01*
X118551889Y-113327196D01*
X118547306Y-113327352D01*
X118445074Y-113366787D01*
X118396236Y-113410722D01*
X118365110Y-113466855D01*
X118197732Y-113466855D01*
X118295910Y-113393774D01*
X118336312Y-113252662D01*
X118339897Y-113174507D01*
X118292589Y-113119361D01*
X118159474Y-113107804D01*
X117956310Y-113138238D01*
X117698852Y-113209068D01*
X117573743Y-113252140D01*
X117341873Y-113329209D01*
X117193957Y-113359245D01*
X117114614Y-113345109D01*
X117107242Y-113338926D01*
X117099767Y-113285809D01*
X117181722Y-113217712D01*
X117299409Y-113155140D01*
X117463316Y-113058135D01*
X117525500Y-112977267D01*
X117523266Y-112957174D01*
X117784858Y-112957174D01*
X117833248Y-112966112D01*
X117952312Y-112961525D01*
X118102883Y-112946993D01*
X118245798Y-112926092D01*
X118326761Y-112907671D01*
X118373714Y-112843301D01*
X118395958Y-112714692D01*
X118396236Y-112697735D01*
X118421890Y-112550321D01*
X118488792Y-112352485D01*
X118572247Y-112167990D01*
X118656639Y-111995373D01*
X118711547Y-111865297D01*
X118725612Y-111804803D01*
X118725092Y-111804139D01*
X118685767Y-111837222D01*
X118593720Y-111938811D01*
X118464575Y-112089748D01*
X118313954Y-112270874D01*
X118157481Y-112463028D01*
X118010780Y-112647052D01*
X117889474Y-112803785D01*
X117809186Y-112914069D01*
X117784858Y-112957174D01*
X117523266Y-112957174D01*
X117523114Y-112955806D01*
X117453668Y-112905097D01*
X117395799Y-112910503D01*
X117296061Y-112897916D01*
X117263705Y-112852747D01*
X117191053Y-112789940D01*
X117128808Y-112795881D01*
X117063759Y-112801464D01*
X117039285Y-112744795D01*
X117041853Y-112619079D01*
X117058475Y-112475974D01*
X117092131Y-112258240D01*
X117137279Y-112000088D01*
X117170168Y-111826805D01*
X117216970Y-111585904D01*
X117254526Y-111388145D01*
X117278389Y-111257217D01*
X117284639Y-111216706D01*
X117259523Y-111251551D01*
X117191067Y-111366031D01*
X117089606Y-111542439D01*
X116965475Y-111763069D01*
X116960279Y-111772394D01*
X116785842Y-112077179D01*
X116600757Y-112386157D01*
X116414897Y-112684351D01*
X116238132Y-112956783D01*
X116080333Y-113188477D01*
X115951372Y-113364454D01*
X115861120Y-113469739D01*
X115826016Y-113493363D01*
X115800280Y-113447960D01*
X115823001Y-113321794D01*
X115884761Y-113148059D01*
X115942607Y-112980010D01*
X116008972Y-112744130D01*
X116079263Y-112462356D01*
X116148892Y-112156628D01*
X116213267Y-111848882D01*
X116267797Y-111561057D01*
X116307894Y-111315092D01*
X116328966Y-111132924D01*
X116326526Y-111036798D01*
X116294432Y-111050442D01*
X116228666Y-111147238D01*
X116140856Y-111308829D01*
X116095379Y-111401725D01*
X115983653Y-111626082D01*
X115906204Y-111760274D01*
X115866767Y-111802508D01*
X115869076Y-111750989D01*
X115916863Y-111603925D01*
X115972212Y-111460887D01*
X116082316Y-111164286D01*
X116140634Y-110942055D01*
X116151187Y-110772427D01*
X116122808Y-110645789D01*
X116056902Y-110541055D01*
X115961609Y-110529442D01*
X115957538Y-110530472D01*
X115876534Y-110532967D01*
X115872201Y-110462863D01*
X115873781Y-110456591D01*
X115876054Y-110395774D01*
X115825715Y-110364881D01*
X115698597Y-110354175D01*
X115617596Y-110353357D01*
X115444894Y-110360073D01*
X115353257Y-110388066D01*
X115313100Y-110447980D01*
X115308693Y-110464516D01*
X115297558Y-110543927D01*
X115278251Y-110713900D01*
X115252740Y-110954303D01*
X115222993Y-111245003D01*
X115190980Y-111565865D01*
X115158667Y-111896756D01*
X115128023Y-112217544D01*
X115101016Y-112508094D01*
X115079615Y-112748274D01*
X115065787Y-112917950D01*
X115061444Y-112993739D01*
X115025046Y-113047869D01*
X115013775Y-113049452D01*
X114990284Y-113025021D01*
X114960376Y-112945636D01*
X114921984Y-112802160D01*
X114873042Y-112585460D01*
X114811483Y-112286398D01*
X114735241Y-111895839D01*
X114644537Y-111416849D01*
X114593006Y-111148992D01*
X114547093Y-110923256D01*
X114511273Y-110760732D01*
X114490018Y-110682512D01*
X114488010Y-110678936D01*
X114452820Y-110714846D01*
X114373396Y-110829136D01*
X114261427Y-111004120D01*
X114128605Y-111222110D01*
X114125253Y-111227732D01*
X113979222Y-111471393D01*
X113842268Y-111697445D01*
X113730945Y-111878711D01*
X113667729Y-111978976D01*
X113550585Y-112159047D01*
X113699575Y-112215693D01*
X113842605Y-112285268D01*
X114043887Y-112401960D01*
X114272869Y-112546020D01*
X114499002Y-112697703D01*
X114691736Y-112837261D01*
X114804911Y-112930159D01*
X114955932Y-113093055D01*
X115098138Y-113287434D01*
X115211506Y-113481256D01*
X115276012Y-113642482D01*
X115283764Y-113696351D01*
X115233056Y-113835196D01*
X115096871Y-113938602D01*
X114899118Y-113990915D01*
X114828713Y-113994310D01*
X114662179Y-114016582D01*
X114569188Y-114091714D01*
X114561225Y-114105470D01*
X114483398Y-114193839D01*
X114404791Y-114211313D01*
X114360201Y-114155503D01*
X114358976Y-114119365D01*
X114338706Y-114053142D01*
X114247784Y-114019922D01*
X114144376Y-114010403D01*
X114023503Y-114009569D01*
X113981068Y-114021244D01*
X113991532Y-114028930D01*
X114060103Y-114087231D01*
X114037254Y-114137685D01*
X113940515Y-114150386D01*
X113922057Y-114147447D01*
X113809788Y-114140282D01*
X113787679Y-114167663D01*
X113848138Y-114211211D01*
X113963742Y-114248343D01*
X114065698Y-114280673D01*
X114085217Y-114308331D01*
X114077407Y-114312136D01*
X113959790Y-114304397D01*
X113806268Y-114235727D01*
X113654252Y-114128749D01*
X113541153Y-114006084D01*
X113524444Y-113977770D01*
X113521295Y-113966520D01*
X113838687Y-113966520D01*
X113866477Y-113994310D01*
X113894267Y-113966520D01*
X113866477Y-113938730D01*
X113838687Y-113966520D01*
X113521295Y-113966520D01*
X113467323Y-113773701D01*
X113474311Y-113545337D01*
X113540688Y-113341970D01*
X113592482Y-113267458D01*
X113647065Y-113187483D01*
X113638877Y-113154460D01*
X113391825Y-113172726D01*
X113140931Y-113274804D01*
X113130044Y-113281364D01*
X113001902Y-113345934D01*
X112953595Y-113343891D01*
X112987873Y-113288714D01*
X113107487Y-113193880D01*
X113111620Y-113191101D01*
X113213600Y-113113659D01*
X113230092Y-113062257D01*
X113186368Y-113018919D01*
X113163376Y-112971051D01*
X113229632Y-112937722D01*
X113363980Y-112920553D01*
X113545263Y-112921162D01*
X113752321Y-112941168D01*
X113889597Y-112965108D01*
X114064778Y-112995169D01*
X114186981Y-113003730D01*
X114227746Y-112991071D01*
X114179621Y-112937284D01*
X114054651Y-112862825D01*
X113881941Y-112780646D01*
X113690597Y-112703703D01*
X113509726Y-112644947D01*
X113393933Y-112619981D01*
X113207357Y-112614821D01*
X113060789Y-112669452D01*
X113003651Y-112708174D01*
X112863389Y-112789248D01*
X112738065Y-112826816D01*
X112729340Y-112827133D01*
X112641306Y-112868787D01*
X112615609Y-112976782D01*
X112651891Y-113125671D01*
X112735629Y-113271435D01*
X112806337Y-113376950D01*
X112826580Y-113462672D01*
X112799639Y-113576100D01*
X112763419Y-113673997D01*
X112692603Y-113937344D01*
X112675047Y-114193801D01*
X112712345Y-114404292D01*
X112731860Y-114447863D01*
X112764835Y-114528348D01*
X112721890Y-114537012D01*
X112678152Y-114524427D01*
X112625346Y-114513040D01*
X112592940Y-114532578D01*
X112577075Y-114602373D01*
X112573894Y-114741757D01*
X112579539Y-114970064D01*
X112580869Y-115011927D01*
X112594569Y-115283633D01*
X112619050Y-115475115D01*
X112660325Y-115617205D01*
X112722479Y-115737616D01*
X112807757Y-115861780D01*
X112873210Y-115932989D01*
X112887481Y-115939606D01*
X112973630Y-115906526D01*
X113120237Y-115818667D01*
X113302941Y-115693095D01*
X113497381Y-115546878D01*
X113679194Y-115397084D01*
X113741576Y-115341234D01*
X114026862Y-115078118D01*
X113844920Y-115308338D01*
X113710042Y-115525303D01*
X113636090Y-115741963D01*
X113633135Y-115761051D01*
X113621959Y-115908248D01*
X113649207Y-115983492D01*
X113724049Y-116021872D01*
X113813319Y-116079652D01*
X113807700Y-116144267D01*
X113717283Y-116186008D01*
X113667039Y-116189715D01*
X113584794Y-116201592D01*
X113541679Y-116256431D01*
X113521189Y-116383044D01*
X113516078Y-116453221D01*
X113516041Y-116633143D01*
X113555176Y-116754260D01*
X113641132Y-116858701D01*
X113726792Y-116964692D01*
X113770288Y-117088494D01*
X113784914Y-117272368D01*
X113785528Y-117317734D01*
X113795489Y-117546549D01*
X113818124Y-117773305D01*
X113833366Y-117869484D01*
X113856842Y-118041818D01*
X113847505Y-118125750D01*
X113810063Y-118114262D01*
X113749225Y-118000336D01*
X113747811Y-117996986D01*
X113675945Y-117881458D01*
X113597623Y-117829541D01*
X113593216Y-117829321D01*
X113505627Y-117784770D01*
X113443541Y-117704266D01*
X113367429Y-117580260D01*
X113259103Y-117426284D01*
X113227575Y-117384682D01*
X113133793Y-117229511D01*
X113036005Y-117014532D01*
X112960200Y-116801094D01*
X112879482Y-116573957D01*
X112783074Y-116361269D01*
X112697473Y-116217505D01*
X112548032Y-115996662D01*
X112429096Y-115764558D01*
X112326014Y-115487786D01*
X112227572Y-115146012D01*
X112165860Y-114896495D01*
X112135337Y-114721310D01*
X112133102Y-114588982D01*
X112156256Y-114468039D01*
X112162967Y-114444816D01*
X112202204Y-114252059D01*
X112222946Y-114028300D01*
X112224007Y-113960072D01*
X112221143Y-113688621D01*
X112134693Y-113897045D01*
X112070396Y-114029699D01*
X111996789Y-114087327D01*
X111869475Y-114097835D01*
X111817972Y-114096127D01*
X111587702Y-114086784D01*
X111790638Y-114065309D01*
X111942807Y-114029404D01*
X112030877Y-113943041D01*
X112062124Y-113878341D01*
X112100741Y-113755741D01*
X112101112Y-113683600D01*
X112099591Y-113681764D01*
X112016831Y-113666876D01*
X111905812Y-113719650D01*
X111805093Y-113818912D01*
X111781739Y-113856282D01*
X111703894Y-113965460D01*
X111642727Y-113988806D01*
X111615662Y-113920592D01*
X111615492Y-113910940D01*
X111573287Y-113837203D01*
X111536577Y-113827571D01*
X111500335Y-113808792D01*
X111480026Y-113740247D01*
X111473898Y-113603625D01*
X111480195Y-113380614D01*
X111484664Y-113285667D01*
X111495653Y-113039888D01*
X111497393Y-112889294D01*
X111487683Y-112818136D01*
X111464321Y-112810663D01*
X111425108Y-112851125D01*
X111424115Y-112852356D01*
X111334848Y-113004635D01*
X111267872Y-113220092D01*
X111219430Y-113514939D01*
X111187888Y-113872039D01*
X111169380Y-114089943D01*
X111147214Y-114252619D01*
X111124815Y-114338427D01*
X111113087Y-114344468D01*
X111066638Y-114252538D01*
X111008012Y-114076755D01*
X110943458Y-113842888D01*
X110879221Y-113576706D01*
X110821549Y-113303978D01*
X110776689Y-113050474D01*
X110751977Y-112854923D01*
X110728647Y-112635851D01*
X110701867Y-112455105D01*
X110676657Y-112345276D01*
X110671680Y-112333603D01*
X110642601Y-112341734D01*
X110605785Y-112448148D01*
X110563893Y-112640457D01*
X110519584Y-112906269D01*
X110475520Y-113233198D01*
X110471678Y-113265023D01*
X110443291Y-113437575D01*
X110414074Y-113506819D01*
X110386546Y-113480557D01*
X110363228Y-113366590D01*
X110346643Y-113172721D01*
X110339310Y-112906751D01*
X110339165Y-112854923D01*
X110347109Y-112568012D01*
X110368065Y-112276948D01*
X110398163Y-112029545D01*
X110412265Y-111951750D01*
X110443594Y-111773874D01*
X110454305Y-111648613D01*
X110443194Y-111604376D01*
X110389172Y-111643692D01*
X110285724Y-111747331D01*
X110154111Y-111893829D01*
X110139015Y-111911420D01*
X110009488Y-112057794D01*
X109909928Y-112160506D01*
X109859537Y-112199914D01*
X109857559Y-112199324D01*
X109870721Y-112143990D01*
X109920396Y-112006465D01*
X109998995Y-111806595D01*
X110098929Y-111564226D01*
X110114527Y-111527236D01*
X110233600Y-111226928D01*
X110366777Y-110860688D01*
X110499597Y-110470013D01*
X110617598Y-110096398D01*
X110643067Y-110010598D01*
X110748023Y-109671015D01*
X110864445Y-109326323D01*
X110980426Y-109009879D01*
X111024842Y-108900659D01*
X117652351Y-108900659D01*
X117696037Y-109041429D01*
X117790632Y-109178988D01*
X117917918Y-109277350D01*
X117924760Y-109280568D01*
X117998059Y-109302669D01*
X118079869Y-109293244D01*
X118192653Y-109243313D01*
X118358873Y-109143894D01*
X118507729Y-109047483D01*
X118762882Y-108889612D01*
X118962755Y-108791367D01*
X119136292Y-108739824D01*
X119224767Y-108727279D01*
X119390470Y-108719568D01*
X119497403Y-108747734D01*
X119561133Y-108831000D01*
X119597226Y-108988584D01*
X119619303Y-109214442D01*
X119647403Y-109575711D01*
X119746731Y-109393247D01*
X119817175Y-109240058D01*
X119897194Y-109031493D01*
X119953344Y-108863435D01*
X120064255Y-108575052D01*
X120197003Y-108385141D01*
X120366565Y-108286875D01*
X120587916Y-108273427D01*
X120876030Y-108337969D01*
X121008490Y-108382364D01*
X121231518Y-108448527D01*
X121499978Y-108509416D01*
X121709361Y-108544939D01*
X121929701Y-108581141D01*
X122124307Y-108624247D01*
X122248627Y-108664013D01*
X122359298Y-108749005D01*
X122499248Y-108903677D01*
X122646756Y-109098936D01*
X122780102Y-109305691D01*
X122877564Y-109494850D01*
X122887832Y-109520131D01*
X122936241Y-109671952D01*
X122998512Y-109906096D01*
X123068476Y-110195547D01*
X123139967Y-110513288D01*
X123206813Y-110832302D01*
X123262847Y-111125573D01*
X123287589Y-111270897D01*
X123322380Y-111481208D01*
X123352789Y-111652226D01*
X123372919Y-111750996D01*
X123374593Y-111757221D01*
X123421247Y-111825591D01*
X123481265Y-111796833D01*
X123540548Y-111681530D01*
X123559677Y-111618271D01*
X123618230Y-111360253D01*
X123682524Y-111021115D01*
X123748594Y-110628145D01*
X123812475Y-110208632D01*
X123870201Y-109789863D01*
X123917807Y-109399128D01*
X123951329Y-109063715D01*
X123966616Y-108817751D01*
X123944746Y-108685204D01*
X123883807Y-108502372D01*
X123823480Y-108364751D01*
X123723650Y-108188077D01*
X123603938Y-108045809D01*
X123433785Y-107905941D01*
X123291758Y-107807854D01*
X123137276Y-107702279D01*
X123019051Y-107608515D01*
X122920336Y-107505531D01*
X122824382Y-107372297D01*
X122714441Y-107187782D01*
X122573763Y-106930955D01*
X122532879Y-106854939D01*
X122396704Y-106605761D01*
X122277597Y-106395936D01*
X122185835Y-106242955D01*
X122131691Y-106164307D01*
X122123185Y-106157549D01*
X122090037Y-106206241D01*
X122037399Y-106333654D01*
X121979037Y-106504923D01*
X121915782Y-106693695D01*
X121855368Y-106808666D01*
X121768984Y-106882591D01*
X121627820Y-106948229D01*
X121568105Y-106972144D01*
X121349909Y-107044322D01*
X121197560Y-107057494D01*
X121137361Y-107042995D01*
X121065989Y-107021563D01*
X121027471Y-107041423D01*
X121011685Y-107124813D01*
X121008505Y-107293973D01*
X121008490Y-107326102D01*
X121001098Y-107501572D01*
X120981890Y-107621937D01*
X120959858Y-107658205D01*
X120915845Y-107607961D01*
X120876671Y-107478512D01*
X120849669Y-107301786D01*
X120841750Y-107143860D01*
X120841750Y-106976889D01*
X120522166Y-107013160D01*
X120290445Y-107039805D01*
X120057827Y-107067086D01*
X119956505Y-107079206D01*
X119800760Y-107097937D01*
X119696837Y-107110222D01*
X119678606Y-107112276D01*
X119553715Y-107095038D01*
X119421229Y-107002082D01*
X119410575Y-106992269D01*
X119342175Y-106931413D01*
X119299220Y-106919983D01*
X119267322Y-106974542D01*
X119232088Y-107111655D01*
X119206251Y-107227461D01*
X119162206Y-107338158D01*
X119110063Y-107380306D01*
X119075171Y-107333384D01*
X119072694Y-107188678D01*
X119083046Y-107081184D01*
X119095396Y-106871540D01*
X119070399Y-106751544D01*
X119048211Y-106723976D01*
X118995916Y-106716534D01*
X118928956Y-106783689D01*
X118835885Y-106938221D01*
X118805804Y-106994657D01*
X118710910Y-107190817D01*
X118681600Y-107315410D01*
X118724219Y-107390931D01*
X118845112Y-107439872D01*
X118937503Y-107461534D01*
X119062458Y-107494396D01*
X119136691Y-107535070D01*
X119154038Y-107591781D01*
X119108333Y-107672755D01*
X118993414Y-107786219D01*
X118803117Y-107940398D01*
X118531277Y-108143519D01*
X118301502Y-108310333D01*
X118080868Y-108472080D01*
X117889989Y-108616698D01*
X117749062Y-108728568D01*
X117678285Y-108792073D01*
X117677788Y-108792664D01*
X117652351Y-108900659D01*
X111024842Y-108900659D01*
X111084060Y-108755041D01*
X111117113Y-108682578D01*
X111349499Y-108243188D01*
X111634283Y-107780334D01*
X111954151Y-107317250D01*
X112291792Y-106877173D01*
X112629891Y-106483339D01*
X112951136Y-106158982D01*
X113083352Y-106043713D01*
X113593684Y-105662156D01*
X113718978Y-105582714D01*
X116437161Y-105582714D01*
X116442888Y-105647464D01*
X116508504Y-105746988D01*
X116580334Y-105835532D01*
X116665837Y-105917711D01*
X116819153Y-106045339D01*
X117023320Y-106205984D01*
X117261380Y-106387215D01*
X117516371Y-106576599D01*
X117771335Y-106761706D01*
X118009311Y-106930103D01*
X118213340Y-107069359D01*
X118366461Y-107167042D01*
X118451714Y-107210719D01*
X118457998Y-107211869D01*
X118494163Y-107165287D01*
X118553667Y-107042592D01*
X118610842Y-106902931D01*
X118674405Y-106725781D01*
X118716696Y-106586651D01*
X118727611Y-106527767D01*
X118721648Y-106518818D01*
X119007615Y-106518818D01*
X119035405Y-106546608D01*
X119063195Y-106518818D01*
X119035405Y-106491028D01*
X119007615Y-106518818D01*
X118721648Y-106518818D01*
X118686342Y-106465833D01*
X118628060Y-106407658D01*
X119063195Y-106407658D01*
X119090985Y-106435448D01*
X119118774Y-106407658D01*
X119090985Y-106379868D01*
X119063195Y-106407658D01*
X118628060Y-106407658D01*
X118584259Y-106363937D01*
X118450667Y-106247195D01*
X118442663Y-106240919D01*
X119118774Y-106240919D01*
X119146564Y-106268709D01*
X119174354Y-106240919D01*
X119146564Y-106213129D01*
X119118774Y-106240919D01*
X118442663Y-106240919D01*
X118314873Y-106140723D01*
X118206181Y-106069637D01*
X118205980Y-106069547D01*
X119178742Y-106069547D01*
X119188961Y-106141635D01*
X119207934Y-106142496D01*
X119221202Y-106068108D01*
X119212322Y-106035968D01*
X119187642Y-106014915D01*
X119178742Y-106069547D01*
X118205980Y-106069547D01*
X118178732Y-106057343D01*
X118117918Y-106087272D01*
X118022877Y-106182404D01*
X117977862Y-106237978D01*
X117833679Y-106391108D01*
X117724320Y-106445086D01*
X117663163Y-106409829D01*
X117663591Y-106295256D01*
X117738982Y-106111287D01*
X117759065Y-106075784D01*
X117839999Y-105921234D01*
X117858547Y-105811560D01*
X117803795Y-105722350D01*
X117748260Y-105685120D01*
X117951597Y-105685120D01*
X117979387Y-105712910D01*
X118007177Y-105685120D01*
X118952035Y-105685120D01*
X118979825Y-105712910D01*
X119007615Y-105685120D01*
X118979825Y-105657330D01*
X118952035Y-105685120D01*
X118007177Y-105685120D01*
X117979387Y-105657330D01*
X117951597Y-105685120D01*
X117748260Y-105685120D01*
X117664832Y-105629191D01*
X117526876Y-105556332D01*
X117303184Y-105473185D01*
X117245698Y-105462800D01*
X119007615Y-105462800D01*
X119035405Y-105490590D01*
X119063195Y-105462800D01*
X119618993Y-105462800D01*
X119646783Y-105490590D01*
X119674573Y-105462800D01*
X119646783Y-105435010D01*
X119618993Y-105462800D01*
X119063195Y-105462800D01*
X119035405Y-105435010D01*
X119007615Y-105462800D01*
X117245698Y-105462800D01*
X117053129Y-105428012D01*
X116809703Y-105421863D01*
X116605899Y-105455789D01*
X116481984Y-105523067D01*
X116437161Y-105582714D01*
X113718978Y-105582714D01*
X114083420Y-105351641D01*
X119063195Y-105351641D01*
X119090985Y-105379431D01*
X119118774Y-105351641D01*
X119090985Y-105323851D01*
X119063195Y-105351641D01*
X114083420Y-105351641D01*
X114166288Y-105299099D01*
X114377156Y-105184901D01*
X118062757Y-105184901D01*
X118090547Y-105212691D01*
X118118337Y-105184901D01*
X118090547Y-105157111D01*
X118062757Y-105184901D01*
X114377156Y-105184901D01*
X114479785Y-105129321D01*
X118173917Y-105129321D01*
X118201707Y-105157111D01*
X118229497Y-105129321D01*
X118201707Y-105101531D01*
X118173917Y-105129321D01*
X114479785Y-105129321D01*
X114765200Y-104974752D01*
X115354458Y-104709326D01*
X115657180Y-104597206D01*
X115876352Y-104519642D01*
X116058263Y-104448855D01*
X116174613Y-104396123D01*
X116197185Y-104382019D01*
X116278102Y-104349979D01*
X116441592Y-104308721D01*
X116660176Y-104264676D01*
X116805033Y-104239796D01*
X116995189Y-104210454D01*
X117155576Y-104191235D01*
X117308042Y-104182849D01*
X117474434Y-104186006D01*
G37*
%TD*%
M02*
